%TF.GenerationSoftware,KiCad,Pcbnew,(5.1.6)-1*%
%TF.CreationDate,2020-05-29T18:25:56-04:00*%
%TF.ProjectId,storjNodePSU,73746f72-6a4e-46f6-9465-5053552e6b69,rev?*%
%TF.SameCoordinates,Original*%
%TF.FileFunction,Copper,L1,Top*%
%TF.FilePolarity,Positive*%
%FSLAX46Y46*%
G04 Gerber Fmt 4.6, Leading zero omitted, Abs format (unit mm)*
G04 Created by KiCad (PCBNEW (5.1.6)-1) date 2020-05-29 18:25:56*
%MOMM*%
%LPD*%
G01*
G04 APERTURE LIST*
%TA.AperFunction,Profile*%
%ADD10C,0.050000*%
%TD*%
%TA.AperFunction,ComponentPad*%
%ADD11C,6.400000*%
%TD*%
%TA.AperFunction,ComponentPad*%
%ADD12C,0.800000*%
%TD*%
%TA.AperFunction,ComponentPad*%
%ADD13R,1.600000X1.600000*%
%TD*%
%TA.AperFunction,ComponentPad*%
%ADD14C,1.600000*%
%TD*%
%TA.AperFunction,ComponentPad*%
%ADD15R,3.500000X3.500000*%
%TD*%
%TA.AperFunction,ComponentPad*%
%ADD16C,3.500000*%
%TD*%
%TA.AperFunction,ComponentPad*%
%ADD17R,1.524000X1.524000*%
%TD*%
%TA.AperFunction,ComponentPad*%
%ADD18C,1.524000*%
%TD*%
%TA.AperFunction,ComponentPad*%
%ADD19R,1.700000X1.700000*%
%TD*%
%TA.AperFunction,ComponentPad*%
%ADD20O,1.700000X1.700000*%
%TD*%
%TA.AperFunction,ComponentPad*%
%ADD21R,1.905000X2.000000*%
%TD*%
%TA.AperFunction,ComponentPad*%
%ADD22O,1.905000X2.000000*%
%TD*%
%TA.AperFunction,Conductor*%
%ADD23C,0.250000*%
%TD*%
G04 APERTURE END LIST*
D10*
X141500000Y-113500000D02*
X141500000Y-135500000D01*
X148500000Y-113500000D02*
X141500000Y-113500000D01*
X148500000Y-102000000D02*
X148500000Y-113500000D01*
X147000000Y-102000000D02*
X148500000Y-102000000D01*
X147000000Y-102000000D02*
X94500000Y-102000000D01*
X94500000Y-112500000D02*
X94500000Y-102000000D01*
X94500000Y-135500000D02*
X141500000Y-135500000D01*
X94500000Y-112500000D02*
X94500000Y-135500000D01*
D11*
%TO.P,MH3,1*%
%TO.N,N/C*%
X143200000Y-108000000D03*
D12*
X145600000Y-108000000D03*
X144897056Y-109697056D03*
X143200000Y-110400000D03*
X141502944Y-109697056D03*
X140800000Y-108000000D03*
X141502944Y-106302944D03*
X143200000Y-105600000D03*
X144897056Y-106302944D03*
%TD*%
D11*
%TO.P,MH2,1*%
%TO.N,N/C*%
X106000000Y-130000000D03*
D12*
X108400000Y-130000000D03*
X107697056Y-131697056D03*
X106000000Y-132400000D03*
X104302944Y-131697056D03*
X103600000Y-130000000D03*
X104302944Y-128302944D03*
X106000000Y-127600000D03*
X107697056Y-128302944D03*
%TD*%
%TO.P,MH1,1*%
%TO.N,N/C*%
X107500000Y-106000000D03*
X105802944Y-105297056D03*
X104105888Y-106000000D03*
X103402944Y-107697056D03*
X104105888Y-109394112D03*
X105802944Y-110097056D03*
X107500000Y-109394112D03*
X108202944Y-107697056D03*
D11*
X105802944Y-107697056D03*
%TD*%
D13*
%TO.P,C1,1*%
%TO.N,+12V*%
X123190000Y-107950000D03*
D14*
%TO.P,C1,2*%
%TO.N,GND*%
X123190000Y-105450000D03*
%TD*%
%TO.P,C2,2*%
%TO.N,GND*%
X124460000Y-130770000D03*
D13*
%TO.P,C2,1*%
%TO.N,+5V*%
X124460000Y-128270000D03*
%TD*%
D14*
%TO.P,C3,1*%
%TO.N,+12V*%
X116840000Y-107950000D03*
%TO.P,C3,2*%
%TO.N,GND*%
X116840000Y-105450000D03*
%TD*%
%TO.P,C4,2*%
%TO.N,GND*%
X118110000Y-130770000D03*
%TO.P,C4,1*%
%TO.N,+5V*%
X118110000Y-128270000D03*
%TD*%
D15*
%TO.P,J1,1*%
%TO.N,+12V*%
X106680000Y-118110000D03*
%TO.P,J1,2*%
%TO.N,GND*%
%TA.AperFunction,ComponentPad*%
G36*
G01*
X99180000Y-119110000D02*
X99180000Y-117110000D01*
G75*
G02*
X99930000Y-116360000I750000J0D01*
G01*
X101430000Y-116360000D01*
G75*
G02*
X102180000Y-117110000I0J-750000D01*
G01*
X102180000Y-119110000D01*
G75*
G02*
X101430000Y-119860000I-750000J0D01*
G01*
X99930000Y-119860000D01*
G75*
G02*
X99180000Y-119110000I0J750000D01*
G01*
G37*
%TD.AperFunction*%
%TO.P,J1,3*%
%TO.N,N/C*%
%TA.AperFunction,ComponentPad*%
G36*
G01*
X101930000Y-123685000D02*
X101930000Y-121935000D01*
G75*
G02*
X102805000Y-121060000I875000J0D01*
G01*
X104555000Y-121060000D01*
G75*
G02*
X105430000Y-121935000I0J-875000D01*
G01*
X105430000Y-123685000D01*
G75*
G02*
X104555000Y-124560000I-875000J0D01*
G01*
X102805000Y-124560000D01*
G75*
G02*
X101930000Y-123685000I0J875000D01*
G01*
G37*
%TD.AperFunction*%
%TD*%
D16*
%TO.P,J3,5*%
%TO.N,GND*%
X137710000Y-118930000D03*
X137710000Y-132070000D03*
D17*
%TO.P,J3,1*%
%TO.N,+5V*%
X135000000Y-129000000D03*
D18*
%TO.P,J3,2*%
%TO.N,Net-(J3-Pad2)*%
X135000000Y-126500000D03*
%TO.P,J3,3*%
%TO.N,Net-(J3-Pad3)*%
X135000000Y-124500000D03*
%TO.P,J3,4*%
%TO.N,GND*%
X135000000Y-122000000D03*
%TD*%
D19*
%TO.P,J4,1*%
%TO.N,+12V*%
X134500000Y-106000000D03*
D20*
%TO.P,J4,2*%
%TO.N,GND*%
X134500000Y-108540000D03*
%TO.P,J4,3*%
X134500000Y-111080000D03*
%TO.P,J4,4*%
%TO.N,+5V*%
X134500000Y-113620000D03*
%TD*%
D21*
%TO.P,U1,1*%
%TO.N,+12V*%
X116840000Y-117500000D03*
D22*
%TO.P,U1,2*%
%TO.N,+5V*%
X119380000Y-117500000D03*
%TO.P,U1,3*%
%TO.N,GND*%
X121920000Y-117500000D03*
%TO.P,U1,4*%
%TO.N,+12V*%
X124460000Y-117500000D03*
%TD*%
D23*
%TO.N,+12V*%
X116230000Y-118110000D02*
X116840000Y-117500000D01*
X106680000Y-118110000D02*
X116230000Y-118110000D01*
X116840000Y-117500000D02*
X116840000Y-107950000D01*
X116840000Y-107950000D02*
X123190000Y-107950000D01*
X132550000Y-107950000D02*
X134500000Y-106000000D01*
X123190000Y-107950000D02*
X132550000Y-107950000D01*
%TO.N,+5V*%
X119380000Y-127000000D02*
X118110000Y-128270000D01*
X119380000Y-117500000D02*
X119380000Y-127000000D01*
X118110000Y-128270000D02*
X124460000Y-128270000D01*
X124460000Y-128270000D02*
X132730000Y-128270000D01*
X132730000Y-115390000D02*
X132730000Y-128270000D01*
X134500000Y-113620000D02*
X132730000Y-115390000D01*
X134270000Y-128270000D02*
X135000000Y-129000000D01*
X132730000Y-128270000D02*
X134270000Y-128270000D01*
%TD*%
M02*
