M48
; DRILL file {KiCad (5.1.6)-1} date 05/29/20 18:27:55
; FORMAT={-:-/ absolute / inch / decimal}
; #@! TF.CreationDate,2020-05-29T18:27:55-04:00
; #@! TF.GenerationSoftware,Kicad,Pcbnew,(5.1.6)-1
FMAT,2
INCH
T1C0.0197
T2C0.0315
T3C0.0362
T4C0.0394
T5C0.0472
T6C0.0906
T7C0.1260
%
G90
G05
T1
X5.5433Y-4.252
X5.571Y-4.1852
X5.571Y-4.3188
X5.6378Y-4.1575
X5.6378Y-4.3465
X5.7046Y-4.1852
X5.7046Y-4.3188
X5.7323Y-4.252
X4.0787Y-5.1181
X4.1064Y-5.0513
X4.1064Y-5.1849
X4.1732Y-5.0236
X4.1732Y-5.2126
X4.24Y-5.0513
X4.24Y-5.1849
X4.2677Y-5.1181
X4.071Y-4.24
X4.0987Y-4.1732
X4.0987Y-4.3069
X4.1655Y-4.1456
X4.1655Y-4.3345
X4.2323Y-4.1732
X4.2323Y-4.3069
X4.26Y-4.24
T2
X4.65Y-5.05
X4.65Y-5.1484
X4.9Y-5.05
X4.9Y-5.1484
X4.6Y-4.1516
X4.6Y-4.25
X4.85Y-4.1516
X4.85Y-4.25
T3
X5.315Y-4.8031
X5.315Y-4.9016
X5.315Y-4.9803
X5.315Y-5.0787
T4
X5.2953Y-4.1732
X5.2953Y-4.2732
X5.2953Y-4.3732
X5.2953Y-4.4732
T5
X4.6Y-4.626
X4.7Y-4.626
X4.8Y-4.626
X4.9Y-4.626
T6
X5.4217Y-4.6823
X5.4217Y-5.1996
T7
X5.6378Y-4.252
X4.1732Y-5.1181
X4.1655Y-4.24
T4
G00X3.9638Y-4.6106
M15
G01X3.9638Y-4.6894
M16
G05
G00X4.0425Y-4.835
M15
G01X4.1213Y-4.835
M16
G05
G00X4.2Y-4.6106
M15
G01X4.2Y-4.6894
M16
G05
T0
M30
