%TF.GenerationSoftware,KiCad,Pcbnew,(5.1.6)-1*%
%TF.CreationDate,2020-05-29T18:25:57-04:00*%
%TF.ProjectId,storjNodePSU,73746f72-6a4e-46f6-9465-5053552e6b69,rev?*%
%TF.SameCoordinates,Original*%
%TF.FileFunction,Legend,Top*%
%TF.FilePolarity,Positive*%
%FSLAX46Y46*%
G04 Gerber Fmt 4.6, Leading zero omitted, Abs format (unit mm)*
G04 Created by KiCad (PCBNEW (5.1.6)-1) date 2020-05-29 18:25:57*
%MOMM*%
%LPD*%
G01*
G04 APERTURE LIST*
%ADD10C,0.060500*%
%ADD11C,0.150000*%
%TA.AperFunction,Profile*%
%ADD12C,0.050000*%
%TD*%
%ADD13C,0.120000*%
G04 APERTURE END LIST*
D10*
X98445495Y-104654551D02*
X98445495Y-104632826D01*
X98445495Y-104632826D02*
X98432988Y-104567596D01*
X98290808Y-104449676D02*
X98273257Y-104449676D01*
X98095838Y-104925426D02*
X98445495Y-104925426D01*
X98343476Y-104463426D02*
X98290808Y-104449676D01*
X98445495Y-104925426D02*
X98445495Y-104654551D01*
X98397871Y-104503301D02*
X98343476Y-104463426D01*
X98432988Y-104567596D02*
X98397871Y-104503301D01*
X98273257Y-104449676D02*
X98273257Y-104449676D01*
X98813533Y-106217211D02*
X98836061Y-106146206D01*
X98543010Y-104287646D02*
X98580333Y-104332196D01*
X98391931Y-104196291D02*
X98448861Y-104218951D01*
X98250883Y-104449676D02*
X98194156Y-104464251D01*
X98328285Y-104182156D02*
X98391931Y-104196291D01*
X98254398Y-104177261D02*
X98257890Y-104177261D01*
X99071643Y-104140686D02*
X99071643Y-104454021D01*
X98843937Y-106048746D02*
X98836215Y-105990391D01*
X98538022Y-106430887D02*
X98609401Y-106410536D01*
X98458294Y-106437871D02*
X98461759Y-106437871D01*
X98609401Y-106410536D02*
X98674268Y-106377921D01*
X99071643Y-104454021D02*
X98681313Y-104715106D01*
X98269798Y-104449676D02*
X98250883Y-104449676D01*
X98636016Y-104438291D02*
X99071643Y-104140686D01*
X97913068Y-104365196D02*
X97959020Y-104299361D01*
X97851869Y-104636731D02*
X97851869Y-104611211D01*
X99071643Y-105193771D02*
X97851869Y-105193771D01*
X98541338Y-105708846D02*
X98484221Y-105701971D01*
X98676660Y-105760821D02*
X98612327Y-105728811D01*
X98674268Y-106377921D02*
X98730995Y-106334141D01*
X98630735Y-104424101D02*
X98636016Y-104438291D01*
X98814072Y-105919771D02*
X98779071Y-105857291D01*
X98257890Y-104177261D02*
X98275468Y-104177261D01*
X98681313Y-104925701D02*
X99071643Y-104925701D01*
X97851869Y-105193771D02*
X97851869Y-104636731D01*
X99071643Y-104925701D02*
X99071643Y-105193771D01*
X98165061Y-104185236D02*
X98232057Y-104177261D01*
X98016759Y-104246946D02*
X98085630Y-104208666D01*
X97851869Y-104611211D02*
X97858849Y-104534541D01*
X97858849Y-104534541D02*
X97879468Y-104443791D01*
X98484221Y-105701971D02*
X98465218Y-105701971D01*
X98499203Y-104249696D02*
X98543010Y-104287646D01*
X98382146Y-106431051D02*
X98439258Y-106437871D01*
X98095838Y-104637831D02*
X98095838Y-104659721D01*
X98732760Y-105803996D02*
X98676660Y-105760821D01*
X98273257Y-104449676D02*
X98269798Y-104449676D01*
X98095838Y-104659721D02*
X98095838Y-104925426D01*
X98843937Y-106068161D02*
X98843937Y-106048746D01*
X98448861Y-104218951D02*
X98499203Y-104249696D01*
X98480822Y-106437871D02*
X98538022Y-106430887D01*
X98106844Y-104571941D02*
X98095838Y-104637831D01*
X98275468Y-104177261D02*
X98328285Y-104182156D01*
X98311158Y-106411086D02*
X98382146Y-106431051D01*
X97879468Y-104443791D02*
X97913068Y-104365196D01*
X98681313Y-104715106D02*
X98681313Y-104925701D01*
X98730995Y-106334141D02*
X98777970Y-106280186D01*
X98843937Y-106087686D02*
X98843937Y-106068161D01*
X98139761Y-104505887D02*
X98106844Y-104571941D01*
X98194156Y-104464251D02*
X98139761Y-104505887D01*
X98232057Y-104177261D02*
X98254398Y-104177261D01*
X98246819Y-106379021D02*
X98311158Y-106411086D01*
X98779071Y-105857291D02*
X98732760Y-105803996D01*
X98836061Y-106146206D02*
X98843937Y-106087686D01*
X98461759Y-106437871D02*
X98480822Y-106437871D01*
X98611309Y-104382686D02*
X98630735Y-104424101D01*
X98465218Y-105701971D02*
X98465218Y-105701971D01*
X98612327Y-105728811D02*
X98541338Y-105708846D01*
X98085630Y-104208666D02*
X98165061Y-104185236D01*
X98777970Y-106280186D02*
X98813533Y-106217211D01*
X98580333Y-104332196D02*
X98611309Y-104382686D01*
X98836215Y-105990391D02*
X98814072Y-105919771D01*
X99071643Y-104140686D02*
X99071643Y-104140686D01*
X97959020Y-104299361D02*
X98016759Y-104246946D01*
X98439258Y-106437871D02*
X98458294Y-106437871D01*
X98087275Y-106149506D02*
X98109412Y-106220126D01*
X98496821Y-106718426D02*
X98465246Y-106718426D01*
X98190730Y-106335901D02*
X98246819Y-106379021D01*
X98144414Y-106282606D02*
X98190730Y-106335901D01*
X97844257Y-105932311D02*
X97880750Y-105808286D01*
X98908507Y-106536266D02*
X98815772Y-106613101D01*
X99042190Y-105811256D02*
X99079068Y-105935666D01*
X98145520Y-105859711D02*
X98109946Y-105922686D01*
X98109412Y-106220126D02*
X98144414Y-106282606D01*
X98249211Y-105761921D02*
X98192484Y-105805756D01*
X98014972Y-105603631D02*
X98107707Y-105526796D01*
X98706355Y-105470091D02*
X98813385Y-105527896D01*
X99079222Y-106207586D02*
X99042729Y-106331611D01*
X98109946Y-105922686D02*
X98087418Y-105993691D01*
X98461759Y-105701971D02*
X98442657Y-105701971D01*
X98984990Y-106441777D02*
X98908507Y-106536266D01*
X98099331Y-107836554D02*
X97851869Y-107836554D01*
X99091965Y-106037691D02*
X99091965Y-106071681D01*
X98430095Y-106718426D02*
X98335209Y-106705996D01*
X97851869Y-107836554D02*
X97851869Y-106828206D01*
X97831547Y-106102206D02*
X97831547Y-106068161D01*
X98079575Y-106091151D02*
X98087275Y-106149506D01*
X98079575Y-106071681D02*
X98079575Y-106091151D01*
X98314084Y-105729306D02*
X98249211Y-105761921D01*
X98442657Y-105701971D02*
X98385457Y-105709012D01*
X99091965Y-106071681D02*
X99091965Y-106105671D01*
X98079575Y-106052211D02*
X98079575Y-106071681D01*
X98458266Y-105421416D02*
X98461759Y-105421416D01*
X98217135Y-106669806D02*
X98110100Y-106612001D01*
X98465246Y-106718426D02*
X98461759Y-106718426D01*
X98493389Y-105421416D02*
X98588270Y-105433901D01*
X98087418Y-105993691D02*
X98079575Y-106052211D01*
X98331865Y-105433791D02*
X98426663Y-105421416D01*
X98192484Y-105805756D02*
X98145520Y-105859711D01*
X97844411Y-106204231D02*
X97831547Y-106102206D01*
X97938494Y-105698066D02*
X98014972Y-105603631D01*
X98461759Y-105421416D02*
X98493389Y-105421416D01*
X98385457Y-105709012D02*
X98314084Y-105729306D01*
X98465218Y-105701971D02*
X98461759Y-105701971D01*
X98591619Y-106706106D02*
X98496821Y-106718426D01*
X99091965Y-106105671D02*
X99079222Y-106207586D01*
X98461759Y-105421416D02*
X98461759Y-105421416D01*
X98426663Y-105421416D02*
X98458266Y-105421416D01*
X98214182Y-105469541D02*
X98331865Y-105433791D01*
X98461759Y-106718426D02*
X98430095Y-106718426D01*
X98099331Y-106828206D02*
X98099331Y-106828206D01*
X97851869Y-106828206D02*
X98099331Y-106828206D01*
X98107707Y-105526796D02*
X98214182Y-105469541D01*
X98709303Y-106670356D02*
X98591619Y-106706106D01*
X97881294Y-106328641D02*
X97844411Y-106204231D01*
X98335209Y-106705996D02*
X98217135Y-106669806D01*
X98815772Y-106613101D02*
X98709303Y-106670356D01*
X98813385Y-105527896D02*
X98906753Y-105605336D01*
X99042729Y-106331611D02*
X98984990Y-106441777D01*
X98016732Y-106534561D02*
X97939600Y-106439411D01*
X98588270Y-105433901D02*
X98706355Y-105470091D01*
X97880750Y-105808286D02*
X97938494Y-105698066D01*
X97831547Y-106034226D02*
X97844257Y-105932311D01*
X97831547Y-106068161D02*
X97831547Y-106034226D01*
X97939600Y-106439411D02*
X97881294Y-106328641D01*
X98110100Y-106612001D02*
X98016732Y-106534561D01*
X99079068Y-105935666D02*
X99091965Y-106037691D01*
X98983890Y-105700486D02*
X99042190Y-105811256D01*
X98906753Y-105605336D02*
X98983890Y-105700486D01*
X98515136Y-108023708D02*
X98569449Y-107992259D01*
X98347469Y-108330762D02*
X98367197Y-108265285D01*
X98322642Y-108424515D02*
X98337118Y-108370775D01*
X98099331Y-107198521D02*
X99071643Y-107198521D01*
X98305218Y-108482639D02*
X98322642Y-108424515D01*
X97936256Y-108761786D02*
X97893460Y-108699576D01*
X98253298Y-108587827D02*
X98271503Y-108563060D01*
X98072144Y-108439492D02*
X98072144Y-108458890D01*
X98099331Y-106828206D02*
X98099331Y-107198521D01*
X98104105Y-108302586D02*
X98080378Y-108381307D01*
X97842288Y-108545152D02*
X97835606Y-108477860D01*
X98710469Y-107966651D02*
X98710469Y-107966651D01*
X98688507Y-107966651D02*
X98707004Y-107966651D01*
X98707004Y-107966651D02*
X98710469Y-107966651D01*
X98633007Y-107973130D02*
X98688507Y-107966651D01*
X98167866Y-108615426D02*
X98178256Y-108615426D01*
X98072144Y-108458890D02*
X98072144Y-108475836D01*
X97990414Y-108003182D02*
X98192154Y-108142327D01*
X98459366Y-108771785D02*
X98413562Y-108818574D01*
X98468914Y-108067125D02*
X98515136Y-108023708D01*
X98123404Y-108873475D02*
X98052058Y-108849962D01*
X98429617Y-108122087D02*
X98468914Y-108067125D01*
X98271503Y-108563060D02*
X98288509Y-108528388D01*
X98209375Y-108612797D02*
X98232887Y-108603997D01*
X98141846Y-108222863D02*
X98104105Y-108302586D01*
X98192154Y-108142327D02*
X98178635Y-108161802D01*
X98080378Y-108526650D02*
X98102994Y-108575650D01*
X97875800Y-108209102D02*
X97924376Y-108101022D01*
X98357407Y-108853009D02*
X98288927Y-108874283D01*
X98102994Y-108575650D02*
X98136714Y-108605399D01*
X98181743Y-108615426D02*
X98188634Y-108615426D01*
X98341743Y-108352773D02*
X98347469Y-108330762D01*
X97835606Y-108423404D02*
X97845841Y-108327292D01*
X98569449Y-107992259D02*
X98633007Y-107973130D01*
X98182782Y-108881560D02*
X98123404Y-108873475D01*
X98080378Y-108381307D02*
X98072144Y-108439492D01*
X97861868Y-108626943D02*
X97842288Y-108545152D01*
X98099331Y-107466250D02*
X98099331Y-107836554D01*
X98337118Y-108370775D02*
X98341743Y-108352773D01*
X99071643Y-107466250D02*
X98099331Y-107466250D01*
X99071643Y-107198521D02*
X99071643Y-107466250D01*
X98396105Y-108188274D02*
X98429617Y-108122087D01*
X98367197Y-108265285D02*
X98396105Y-108188274D01*
X98288509Y-108528388D02*
X98305218Y-108482639D01*
X98136714Y-108605399D02*
X98167866Y-108615426D01*
X97924376Y-108101022D02*
X97972006Y-108026128D01*
X98496728Y-108713474D02*
X98459366Y-108771785D01*
X98232887Y-108603997D02*
X98253298Y-108587827D01*
X97972006Y-108026128D02*
X97990414Y-108003182D01*
X98188634Y-108615426D02*
X98209375Y-108612797D01*
X98413562Y-108818574D02*
X98357407Y-108853009D01*
X98178256Y-108615426D02*
X98181743Y-108615426D01*
X98202599Y-108881560D02*
X98182782Y-108881560D01*
X98072144Y-108475836D02*
X98080378Y-108526650D01*
X97845841Y-108327292D02*
X97875800Y-108209102D01*
X98226799Y-108881560D02*
X98206091Y-108881560D01*
X98178635Y-108161802D02*
X98141846Y-108222863D01*
X97835606Y-108455425D02*
X97835606Y-108423404D01*
X97835606Y-108477860D02*
X97835606Y-108455425D01*
X98052058Y-108849962D02*
X97989397Y-108812331D01*
X97989397Y-108812331D02*
X97936256Y-108761786D01*
X98206091Y-108881560D02*
X98202599Y-108881560D01*
X98288927Y-108874283D02*
X98226799Y-108881560D01*
X97893460Y-108699576D02*
X97861868Y-108626943D01*
X98438686Y-110549198D02*
X98480525Y-110525774D01*
X98330138Y-110747061D02*
X98335121Y-110708660D01*
X98330138Y-110760338D02*
X98330138Y-110759980D01*
X98330138Y-110760492D02*
X98330138Y-110760338D01*
X98822696Y-111493284D02*
X98822663Y-111493581D01*
X98124301Y-103451811D02*
X98124301Y-103851991D01*
X98822696Y-111496865D02*
X98822696Y-111496865D01*
X98774324Y-110608670D02*
X98797869Y-110648589D01*
X97851869Y-103177086D02*
X98649204Y-103177086D01*
X98821145Y-110728685D02*
X98822009Y-110740708D01*
X98563987Y-110505781D02*
X98576401Y-110505781D01*
X98588248Y-110505781D02*
X98623816Y-110510495D01*
X98822663Y-111493889D02*
X98822696Y-111496128D01*
X98708643Y-110545497D02*
X98744305Y-110573998D01*
X98822696Y-111496128D02*
X98822696Y-111496865D01*
X98822663Y-111493615D02*
X98822663Y-111493889D01*
X98576401Y-110505781D02*
X98588248Y-110505781D01*
X98256070Y-110769198D02*
X98311576Y-110760761D01*
X98822696Y-111493169D02*
X98822696Y-111493284D01*
X98822696Y-110743662D02*
X98822696Y-111493169D01*
X98623816Y-110510495D02*
X98668179Y-110524014D01*
X98402254Y-110580202D02*
X98438686Y-110549198D01*
X98526747Y-110510946D02*
X98563987Y-110505781D01*
X98372175Y-110617800D02*
X98402254Y-110580202D01*
X98814039Y-110692902D02*
X98821145Y-110728685D01*
X98668179Y-110524014D02*
X98708643Y-110545497D01*
X98330138Y-110759837D02*
X98330138Y-110747061D01*
X98744305Y-110573998D02*
X98774324Y-110608670D01*
X98480525Y-110525774D02*
X98526747Y-110510946D01*
X98124301Y-103851991D02*
X97851869Y-103851991D01*
X98330138Y-110759980D02*
X98330138Y-110759837D01*
X98822009Y-110740708D02*
X98822097Y-110740945D01*
X99087906Y-103608341D02*
X99087906Y-103640956D01*
X99087906Y-103585241D02*
X99087906Y-103608341D01*
X98797869Y-110648589D02*
X98814039Y-110692902D01*
X98311576Y-110760761D02*
X98330138Y-110760492D01*
X99081196Y-103515886D02*
X99087906Y-103585241D01*
X99060956Y-103432396D02*
X99081196Y-103515886D01*
X99027126Y-103358751D02*
X99060956Y-103432396D01*
X98979529Y-103296216D02*
X99027126Y-103358751D01*
X98918055Y-103245726D02*
X98979529Y-103296216D01*
X98842595Y-103208271D02*
X98918055Y-103245726D01*
X98753017Y-103185061D02*
X98842595Y-103208271D01*
X98675142Y-103177086D02*
X98753017Y-103185061D01*
X98649204Y-103177086D02*
X98675142Y-103177086D01*
X98822696Y-110743007D02*
X98822696Y-110743662D01*
X98349471Y-110660975D02*
X98372175Y-110617800D01*
X98335121Y-110708660D02*
X98349471Y-110660975D01*
X97851869Y-103851991D02*
X97851869Y-103177086D01*
X98822663Y-111493581D02*
X98822663Y-111493615D01*
X98822097Y-110740945D02*
X98822696Y-110743007D01*
X98571627Y-111816866D02*
X98524090Y-111823488D01*
X97656718Y-109686386D02*
X97663670Y-109686540D01*
X98187144Y-110792117D02*
X98256070Y-110769198D01*
X98070560Y-110874595D02*
X98124812Y-110827746D01*
X98145102Y-111473886D02*
X98100755Y-111441904D01*
X98445165Y-111816926D02*
X98386354Y-111798039D01*
X98768983Y-111679481D02*
X98730610Y-111727826D01*
X97590834Y-109765201D02*
X97590922Y-109757974D01*
X98797990Y-111624014D02*
X98768983Y-111679481D01*
X98822696Y-111496865D02*
X98822696Y-111513338D01*
X97610084Y-109809481D02*
X97595756Y-109786893D01*
X98100755Y-111441904D02*
X98061463Y-111403772D01*
X97992059Y-110995952D02*
X98025834Y-110931168D01*
X97963321Y-111124949D02*
X97970752Y-111067447D01*
X97980300Y-111259105D02*
X97967672Y-111203005D01*
X98193975Y-111515427D02*
X98193892Y-111499043D01*
X98219159Y-111625444D02*
X98200597Y-111564515D01*
X97590922Y-109757974D02*
X97591015Y-109750906D01*
X97668565Y-109829831D02*
X97661283Y-109829738D01*
X98730610Y-111727826D02*
X98684063Y-111767718D01*
X98000589Y-111311713D02*
X97980300Y-111259105D01*
X98333086Y-111768136D02*
X98286655Y-111728536D01*
X98027831Y-111360146D02*
X98000589Y-111311713D01*
X97612680Y-109706802D02*
X97635708Y-109691644D01*
X97632403Y-109824276D02*
X97610084Y-109809481D01*
X97661283Y-109829738D02*
X97654034Y-109829677D01*
X97963321Y-111158846D02*
X97963321Y-111144100D01*
X97967672Y-111203005D02*
X97963321Y-111158846D01*
X97728598Y-109788587D02*
X97713566Y-109810642D01*
X98193892Y-111499043D02*
X98181297Y-111493702D01*
X97734180Y-109753112D02*
X97734153Y-109760212D01*
X97635708Y-109691644D02*
X97656718Y-109686386D01*
X97734153Y-109760212D02*
X97734092Y-109767313D01*
X98124812Y-110827746D02*
X98187144Y-110792117D01*
X98248254Y-111680559D02*
X98219159Y-111625444D01*
X98492487Y-111823488D02*
X98445165Y-111816926D01*
X97595756Y-109786893D02*
X97590834Y-109765201D01*
X97670650Y-109686716D02*
X97691572Y-109692777D01*
X98025834Y-110931168D02*
X98070560Y-110874595D01*
X98816278Y-111562689D02*
X98797990Y-111624014D01*
X97963321Y-111144100D02*
X97963321Y-111124949D01*
X98061463Y-111403772D02*
X98027831Y-111360146D01*
X97728873Y-109731717D02*
X97734180Y-109753112D01*
X98181297Y-111493702D02*
X98145102Y-111473886D01*
X98508278Y-111823488D02*
X98492487Y-111823488D01*
X98684063Y-111767718D02*
X98630642Y-111797830D01*
X97713566Y-109810642D02*
X97690554Y-109824876D01*
X97596950Y-109729687D02*
X97612680Y-109706802D01*
X97690554Y-109824876D02*
X97668565Y-109829831D01*
X98286655Y-111728536D02*
X98248254Y-111680559D01*
X97714006Y-109708534D02*
X97728873Y-109731717D01*
X98524090Y-111823488D02*
X98508278Y-111823488D01*
X97663670Y-109686540D02*
X97670650Y-109686716D01*
X98822696Y-111513338D02*
X98816278Y-111562689D01*
X97734092Y-109767313D02*
X97728598Y-109788587D01*
X98200597Y-111564515D02*
X98193975Y-111515427D01*
X97591015Y-109750906D02*
X97596950Y-109729687D01*
X97970752Y-111067447D02*
X97992059Y-110995952D01*
X98630642Y-111797830D02*
X98571627Y-111816866D01*
X98386354Y-111798039D02*
X98333086Y-111768136D01*
X97691572Y-109692777D02*
X97714006Y-109708534D01*
X97734153Y-112534384D02*
X97734153Y-112534384D01*
X97734153Y-109760212D02*
X97734153Y-109760212D01*
X97654034Y-109829677D02*
X97632403Y-109824276D01*
X97670831Y-112608147D02*
X97663791Y-112608356D01*
X99266579Y-112608356D02*
X99259814Y-112608386D01*
X97734092Y-112527312D02*
X97734153Y-112534384D01*
X97668505Y-112465067D02*
X97690494Y-112469901D01*
X97734213Y-112541545D02*
X97728955Y-112563030D01*
X99991444Y-111149452D02*
X99991474Y-111142439D01*
X100062312Y-111221925D02*
X100055241Y-111221865D01*
X97728576Y-112506067D02*
X97734092Y-112527312D01*
X97632282Y-112470737D02*
X97653974Y-112465276D01*
X97635895Y-112603372D02*
X97612823Y-112588244D01*
X100012421Y-111098901D02*
X100035308Y-111084007D01*
X100128974Y-111179163D02*
X100113637Y-111201784D01*
X99991384Y-111156514D02*
X99991444Y-111149452D01*
X97663791Y-112608356D02*
X97656839Y-112608565D01*
X97734153Y-112534384D02*
X97734213Y-112541545D01*
X99232925Y-112602567D02*
X99210490Y-112586573D01*
X100070816Y-111078760D02*
X100092003Y-111084365D01*
X100034144Y-111216106D02*
X100011616Y-111200684D01*
X100092003Y-111084365D02*
X100114532Y-111099583D01*
X99232270Y-112470348D02*
X99253726Y-112465156D01*
X99259814Y-112608386D02*
X99253099Y-112608416D01*
X97713473Y-112484045D02*
X97728576Y-112506067D01*
X97690494Y-112469901D02*
X97713473Y-112484045D01*
X97612823Y-112588244D02*
X97597010Y-112565327D01*
X99210490Y-112586573D02*
X99195057Y-112563208D01*
X100011616Y-111200684D02*
X99996696Y-111177766D01*
X97661223Y-112465156D02*
X97668505Y-112465067D01*
X97597010Y-112565327D02*
X97591015Y-112544111D01*
X99195057Y-112563208D02*
X99189359Y-112542202D01*
X97653974Y-112465276D02*
X97661223Y-112465156D01*
X100134673Y-111150876D02*
X100134643Y-111157949D01*
X97609957Y-112485567D02*
X97632282Y-112470737D01*
X97656839Y-112608565D02*
X97635895Y-112603372D01*
X100134703Y-111143781D02*
X100134673Y-111150876D01*
X99209621Y-112484880D02*
X99232270Y-112470348D01*
X100056643Y-111078667D02*
X100063774Y-111078700D01*
X99997114Y-111121369D02*
X100012421Y-111098901D01*
X99253099Y-112608416D02*
X99232925Y-112602567D01*
X97691841Y-112602030D02*
X97670831Y-112608147D01*
X99286962Y-112602328D02*
X99266579Y-112608356D01*
X99996696Y-111177766D02*
X99991384Y-111156514D01*
X97595668Y-112508155D02*
X97609957Y-112485567D01*
X97590801Y-112529818D02*
X97595668Y-112508155D01*
X100063774Y-111078700D02*
X100070816Y-111078760D01*
X97590922Y-112537010D02*
X97590801Y-112529818D01*
X100129391Y-111122414D02*
X100134703Y-111143781D01*
X100114532Y-111099583D02*
X100129391Y-111122414D01*
X97591015Y-112544111D02*
X97590922Y-112537010D01*
X97714221Y-112586245D02*
X97691841Y-112602030D01*
X97728955Y-112563030D02*
X97714221Y-112586245D01*
X99991444Y-111149452D02*
X99991444Y-111149452D01*
X100113637Y-111201784D02*
X100090720Y-111216733D01*
X99194733Y-112507081D02*
X99209621Y-112484880D01*
X100055241Y-111221865D02*
X100034144Y-111216106D01*
X100134643Y-111157949D02*
X100128974Y-111179163D01*
X99189359Y-112535190D02*
X99189359Y-112528177D01*
X100069384Y-111222019D02*
X100062312Y-111221925D01*
X100090720Y-111216733D02*
X100069384Y-111222019D01*
X100035308Y-111084007D02*
X100056643Y-111078667D01*
X99253726Y-112465156D02*
X99260881Y-112465156D01*
X99260881Y-112465156D02*
X99260881Y-112465156D01*
X99189359Y-112528177D02*
X99194733Y-112507081D01*
X99189359Y-112542202D02*
X99189359Y-112535190D01*
X99991474Y-111142439D02*
X99997114Y-111121369D01*
X96837570Y-111216348D02*
X96815042Y-111201157D01*
X99288843Y-109824249D02*
X99267630Y-109829738D01*
X99332590Y-109765795D02*
X99327013Y-109786678D01*
X96865587Y-111221925D02*
X96865587Y-111221925D01*
X99332590Y-109758810D02*
X99332590Y-109765795D01*
X96931708Y-111177584D02*
X96915835Y-111200503D01*
X96937797Y-111150106D02*
X96937709Y-111156998D01*
X99310123Y-109708622D02*
X99326408Y-109731838D01*
X96893219Y-111084519D02*
X96916341Y-111100177D01*
X96872506Y-111078700D02*
X96893219Y-111084519D01*
X99260584Y-109829738D02*
X99253429Y-109829738D01*
X99253429Y-109829738D02*
X99232001Y-109824485D01*
X96794571Y-111157295D02*
X96794571Y-111150222D01*
X96837537Y-111084277D02*
X96858575Y-111078727D01*
X96794571Y-111143176D02*
X96800000Y-111122023D01*
X96800000Y-111122023D02*
X96814982Y-111099374D01*
X96794571Y-111150222D02*
X96794571Y-111143176D01*
X99210457Y-109708441D02*
X99232925Y-109692568D01*
X99189332Y-109766449D02*
X99189359Y-109759409D01*
X97879232Y-109541637D02*
X97919129Y-109590009D01*
X96800033Y-111178453D02*
X96794571Y-111157295D01*
X96858575Y-111221925D02*
X96837570Y-111216348D01*
X99326408Y-109731838D02*
X99332557Y-109752067D01*
X99209445Y-109809839D02*
X99194639Y-109787547D01*
X96865587Y-111221925D02*
X96858575Y-111221925D01*
X99194639Y-109787547D02*
X99189332Y-109766449D01*
X99266794Y-109686452D02*
X99286929Y-109692414D01*
X99253308Y-109686600D02*
X99260111Y-109686512D01*
X99189359Y-109759409D02*
X99189392Y-109752457D01*
X99189392Y-109752457D02*
X99195118Y-109731563D01*
X97919129Y-109590009D02*
X97929744Y-109607708D01*
X99310145Y-112586304D02*
X99286962Y-112602328D01*
X99311707Y-109809184D02*
X99288843Y-109824249D01*
X96814982Y-111099374D02*
X96837537Y-111084277D01*
X96858575Y-111078727D02*
X96865620Y-111078700D01*
X96815042Y-111201157D02*
X96800033Y-111178453D01*
X96937857Y-111143363D02*
X96937797Y-111150106D01*
X99326359Y-112563328D02*
X99310145Y-112586304D01*
X99327013Y-109786678D02*
X99311707Y-109809184D01*
X99332530Y-112543097D02*
X99326359Y-112563328D01*
X99311971Y-112485984D02*
X99327189Y-112508573D01*
X96932132Y-111122980D02*
X96937857Y-111143363D01*
X96916341Y-111100177D02*
X96932132Y-111122980D01*
X96865620Y-111078700D02*
X96872506Y-111078700D01*
X99332557Y-109752067D02*
X99332590Y-109758810D01*
X99232001Y-109824485D02*
X99209445Y-109809839D01*
X99195118Y-109731563D02*
X99210457Y-109708441D01*
X99332590Y-112536323D02*
X99332530Y-112543097D01*
X99332618Y-112529401D02*
X99332590Y-112536323D01*
X99327189Y-112508573D02*
X99332618Y-112529401D01*
X99289140Y-112470796D02*
X99311971Y-112485984D01*
X99286929Y-109692414D02*
X99310123Y-109708622D01*
X96915835Y-111200503D02*
X96892889Y-111216167D01*
X99267927Y-112465186D02*
X99289140Y-112470796D01*
X96937709Y-111156998D02*
X96931708Y-111177584D01*
X97929744Y-109607708D02*
X97929744Y-109607708D01*
X97817698Y-109493688D02*
X97879232Y-109541637D01*
X99260584Y-109829738D02*
X99260584Y-109829738D01*
X99260111Y-109686512D02*
X99266794Y-109686452D01*
X99267630Y-109829738D02*
X99260584Y-109829738D01*
X99260881Y-112465156D02*
X99267927Y-112465186D01*
X96872385Y-111221958D02*
X96865587Y-111221925D01*
X96892889Y-111216167D02*
X96872385Y-111221958D01*
X99232925Y-109692568D02*
X99253308Y-109686600D01*
X97466913Y-109522453D02*
X97529245Y-109482974D01*
X96907541Y-110814199D02*
X96917656Y-110799756D01*
X97745015Y-109463966D02*
X97817698Y-109493688D01*
X97607845Y-109456810D02*
X97632639Y-109454148D01*
X97354477Y-109772450D02*
X97359696Y-109701307D01*
X97366439Y-109845050D02*
X97354477Y-109772450D01*
X96828050Y-110840374D02*
X96843659Y-110838702D01*
X96553677Y-111151146D02*
X96554007Y-111134800D01*
X97399560Y-109921406D02*
X97396788Y-109916478D01*
X96810829Y-110843382D02*
X96813992Y-110842937D01*
X97359014Y-112262547D02*
X96949759Y-111552310D01*
X96949759Y-111552310D02*
X96908944Y-111481201D01*
X97656570Y-109452900D02*
X97661047Y-109452509D01*
X97359696Y-109701307D02*
X97380976Y-109634202D01*
X97399230Y-109964048D02*
X97404901Y-109942917D01*
X96843659Y-110838702D02*
X96848873Y-110838702D01*
X96669512Y-110907358D02*
X96712720Y-110877614D01*
X96742206Y-111431998D02*
X96688372Y-111402485D01*
X96872506Y-111457298D02*
X96867468Y-111457276D01*
X97406485Y-112353616D02*
X97402189Y-112337205D01*
X96873821Y-110836040D02*
X96892680Y-110827927D01*
X96797970Y-110845230D02*
X96810829Y-110843382D01*
X96712720Y-110877614D02*
X96760196Y-110855889D01*
X96906463Y-111476905D02*
X96892059Y-111462820D01*
X96575847Y-111032896D02*
X96600014Y-110986201D01*
X96892059Y-111462820D02*
X96872506Y-111457298D01*
X96576172Y-111261047D02*
X96559045Y-111200327D01*
X96641996Y-111363369D02*
X96604222Y-111315799D01*
X96867468Y-111457276D02*
X96851144Y-111457243D01*
X96851144Y-111457243D02*
X96802271Y-111450676D01*
X97402189Y-112337205D02*
X97400072Y-112333505D01*
X96892680Y-110827927D02*
X96907541Y-110814199D01*
X96554243Y-111121787D02*
X96560145Y-111082847D01*
X97682084Y-109453043D02*
X97745015Y-109463966D01*
X97661047Y-109452509D02*
X97682084Y-109453043D01*
X97602945Y-109457850D02*
X97607845Y-109456810D01*
X96813992Y-110842937D02*
X96828050Y-110840374D01*
X96920549Y-110794685D02*
X96959967Y-110725726D01*
X97632639Y-109454148D02*
X97656570Y-109452900D01*
X97387240Y-109899742D02*
X97366439Y-109845050D01*
X97584030Y-109461942D02*
X97602945Y-109457850D01*
X97529245Y-109482974D02*
X97584030Y-109461942D01*
X97396491Y-109968761D02*
X97399230Y-109964048D01*
X97380976Y-109634202D02*
X97417078Y-109573713D01*
X96600014Y-110986201D02*
X96631584Y-110943972D01*
X96908944Y-111481201D02*
X96906463Y-111476905D01*
X96802271Y-111450676D02*
X96742206Y-111431998D01*
X96855115Y-110838702D02*
X96873821Y-110836040D01*
X96631584Y-110943972D02*
X96669512Y-110907358D01*
X97396788Y-109916478D02*
X97387240Y-109899742D01*
X97356682Y-110037511D02*
X97396491Y-109968761D01*
X96559045Y-111200327D02*
X96553677Y-111151146D01*
X96917656Y-110799756D02*
X96920549Y-110794685D01*
X96848873Y-110838702D02*
X96855115Y-110838702D01*
X96560145Y-111082847D02*
X96575847Y-111032896D01*
X97400072Y-112333505D02*
X97359014Y-112262547D01*
X97401892Y-112369909D02*
X97406485Y-112353616D01*
X97417078Y-109573713D02*
X97466913Y-109522453D01*
X96604222Y-111315799D02*
X96576172Y-111261047D01*
X97404901Y-109942917D02*
X97399560Y-109921406D01*
X96959967Y-110725726D02*
X97356682Y-110037511D01*
X96554007Y-111134800D02*
X96554243Y-111121787D01*
X96760196Y-110855889D02*
X96797970Y-110845230D01*
X96688372Y-111402485D02*
X96641996Y-111363369D01*
X98950615Y-112663021D02*
X98869061Y-112663260D01*
X100140790Y-111446287D02*
X100126527Y-111449449D01*
X97399593Y-112373519D02*
X97401892Y-112369909D01*
X97360318Y-112601642D02*
X97356891Y-112577531D01*
X97793712Y-112815262D02*
X97705118Y-112840685D01*
X99522698Y-112370834D02*
X99525052Y-112374713D01*
X97870041Y-112763311D02*
X97793712Y-112815262D01*
X98995556Y-112690146D02*
X98993675Y-112686983D01*
X97932406Y-112683312D02*
X97930701Y-112686266D01*
X99057106Y-112766564D02*
X99007843Y-112711063D01*
X99556952Y-112446417D02*
X99569695Y-112519942D01*
X97389622Y-112389126D02*
X97399593Y-112373519D01*
X97359460Y-112471900D02*
X97389622Y-112389126D01*
X97354323Y-112559509D02*
X97359460Y-112471900D01*
X97356891Y-112577531D02*
X97354323Y-112559509D01*
X100058881Y-111457028D02*
X100052734Y-111457149D01*
X97705118Y-112840685D02*
X97631385Y-112842118D01*
X98993675Y-112686983D02*
X98987080Y-112678031D01*
X99320650Y-112837314D02*
X99297104Y-112841760D01*
X99524694Y-112331625D02*
X99522434Y-112335504D01*
X100126527Y-111449449D02*
X100120499Y-111450797D01*
X97385359Y-112671824D02*
X97360318Y-112601642D01*
X98965718Y-112664633D02*
X98954372Y-112663021D01*
X99134634Y-112817441D02*
X99057106Y-112766564D01*
X100052734Y-111457149D02*
X100048557Y-111457276D01*
X99297104Y-112841760D02*
X99223910Y-112841461D01*
X97439336Y-112749764D02*
X97385359Y-112671824D01*
X99456483Y-112774561D02*
X99394031Y-112813770D01*
X100048557Y-111457276D02*
X100031966Y-111461659D01*
X97514769Y-112806728D02*
X97439336Y-112749764D01*
X97948042Y-112668034D02*
X97938819Y-112675107D01*
X98954372Y-112663021D02*
X98950615Y-112663021D01*
X99543197Y-112660992D02*
X99506671Y-112722670D01*
X98053824Y-112663380D02*
X97972303Y-112663231D01*
X99565812Y-112260457D02*
X99524694Y-112331625D01*
X99007843Y-112711063D02*
X98995556Y-112690146D01*
X99535084Y-112391393D02*
X99556952Y-112446417D01*
X100120499Y-111450797D02*
X100058881Y-111457028D01*
X97918529Y-112707273D02*
X97870041Y-112763311D01*
X100182446Y-111431514D02*
X100140790Y-111446287D01*
X97583733Y-112834031D02*
X97514769Y-112806728D01*
X97607609Y-112838060D02*
X97583733Y-112834031D01*
X97958993Y-112664335D02*
X97948042Y-112668034D01*
X97631385Y-112842118D02*
X97607609Y-112838060D01*
X97930701Y-112686266D02*
X97918529Y-112707273D01*
X97938819Y-112675107D02*
X97932406Y-112683312D01*
X99394031Y-112813770D02*
X99339427Y-112833793D01*
X98977505Y-112669556D02*
X98965718Y-112664633D01*
X99339427Y-112833793D02*
X99320650Y-112837314D01*
X97968959Y-112663231D02*
X97958993Y-112664335D01*
X97972303Y-112663231D02*
X97968959Y-112663231D01*
X98869061Y-112663260D02*
X98053824Y-112663380D01*
X99976315Y-111548284D02*
X99565812Y-112260457D01*
X98987080Y-112678031D02*
X98977505Y-112669556D01*
X99506671Y-112722670D02*
X99456483Y-112774561D01*
X100019434Y-111473292D02*
X100017285Y-111476999D01*
X99223910Y-112841461D02*
X99134634Y-112817441D01*
X99564652Y-112592452D02*
X99543197Y-112660992D01*
X99569695Y-112519942D02*
X99564652Y-112592452D01*
X99522434Y-112335504D02*
X99517984Y-112353139D01*
X99517984Y-112353139D02*
X99522698Y-112370834D01*
X100017285Y-111476999D02*
X99976315Y-111548284D01*
X100031966Y-111461659D02*
X100019434Y-111473292D01*
X99525052Y-112374713D02*
X99535084Y-112391393D01*
X99566203Y-109813958D02*
X99537196Y-109900429D01*
X99476355Y-109539101D02*
X99532361Y-109613764D01*
X99313368Y-109455760D02*
X99336022Y-109459406D01*
X100367868Y-111110803D02*
X100369330Y-111125549D01*
X99290070Y-109452036D02*
X99313368Y-109455760D01*
X100366466Y-111096899D02*
X100367868Y-111110803D01*
X100335284Y-111004373D02*
X100356649Y-111055627D01*
X97931570Y-109610810D02*
X97938192Y-109619401D01*
X100171465Y-110859673D02*
X100221804Y-110884654D01*
X100073621Y-110838526D02*
X100116889Y-110843954D01*
X98964701Y-109631457D02*
X98975706Y-109627783D01*
X98975706Y-109627783D02*
X98984957Y-109620749D01*
X99524095Y-109921797D02*
X99518908Y-109943637D01*
X100032115Y-110832580D02*
X100044140Y-110837151D01*
X99525173Y-109964851D02*
X99527884Y-109969537D01*
X100022208Y-110824407D02*
X100032115Y-110832580D01*
X99973242Y-110741836D02*
X100013585Y-110812137D01*
X99005044Y-109588849D02*
X99053113Y-109533700D01*
X98869842Y-109632381D02*
X98951363Y-109632502D01*
X97973106Y-109632557D02*
X98054627Y-109632414D01*
X99518908Y-109943637D02*
X99525173Y-109964851D01*
X97947652Y-109627101D02*
X97958993Y-109631303D01*
X99129657Y-109481368D02*
X99217943Y-109454715D01*
X98991376Y-109612537D02*
X98993108Y-109609556D01*
X99527884Y-109969537D02*
X99568469Y-110039689D01*
X98993108Y-109609556D02*
X99005044Y-109588849D01*
X99527175Y-109916786D02*
X99524095Y-109921797D01*
X99567957Y-109722856D02*
X99566203Y-109813958D01*
X99053113Y-109533700D02*
X99129657Y-109481368D01*
X99564415Y-109704151D02*
X99567957Y-109722856D01*
X98951363Y-109632502D02*
X98954669Y-109632502D01*
X100013585Y-110812137D02*
X100015435Y-110815393D01*
X99401637Y-109484882D02*
X99476355Y-109539101D01*
X99568469Y-110039689D02*
X99973242Y-110741836D01*
X97969580Y-109632590D02*
X97973106Y-109632557D01*
X99537196Y-109900429D02*
X99527175Y-109916786D01*
X100059209Y-110838526D02*
X100073621Y-110838526D01*
X97929744Y-109607708D02*
X97931570Y-109610810D01*
X99336022Y-109459406D02*
X99401637Y-109484882D01*
X100232487Y-111404542D02*
X100182446Y-111431514D01*
X100369330Y-111125549D02*
X100368555Y-111170242D01*
X100055449Y-110838548D02*
X100059209Y-110838526D01*
X100044140Y-110837151D02*
X100055449Y-110838548D01*
X100015435Y-110815393D02*
X100022208Y-110824407D01*
X99217943Y-109454715D02*
X99290070Y-109452036D01*
X98984957Y-109620749D02*
X98991376Y-109612537D01*
X99000000Y-111500000D02*
X99000000Y-111500000D01*
X100275873Y-111369540D02*
X100232487Y-111404542D01*
X100311919Y-111327558D02*
X100275873Y-111369540D01*
X100339879Y-111279637D02*
X100311919Y-111327558D01*
X100359006Y-111226853D02*
X100339879Y-111279637D01*
X97958993Y-109631303D02*
X97969580Y-109632590D01*
X100221804Y-110884654D02*
X100266653Y-110917797D01*
X99000000Y-111517996D02*
X99000000Y-111500000D01*
X100116889Y-110843954D02*
X100171465Y-110859673D01*
X98954669Y-109632502D02*
X98964701Y-109631457D01*
X98054627Y-109632414D02*
X98869842Y-109632381D01*
X100368555Y-111170242D02*
X100359006Y-111226853D01*
X99559999Y-109680875D02*
X99564415Y-109704151D01*
X99532361Y-109613764D02*
X99559999Y-109680875D01*
X97938192Y-109619401D02*
X97947652Y-109627101D01*
X100356649Y-111055627D02*
X100366466Y-111096899D01*
X100304877Y-110958057D02*
X100335284Y-111004373D01*
X100266653Y-110917797D02*
X100304877Y-110958057D01*
X99260111Y-112286120D02*
X99255810Y-112286181D01*
X99056727Y-112364627D02*
X99058608Y-112379457D01*
X98994989Y-111571973D02*
X99000000Y-111517996D01*
X98925645Y-111766497D02*
X98934473Y-111751966D01*
X98947750Y-111804722D02*
X98925645Y-111766497D01*
X99164895Y-112770085D02*
X99207592Y-112784557D01*
X99027720Y-112311006D02*
X99042251Y-112338399D01*
X99472686Y-112393423D02*
X99441380Y-112356750D01*
X99155078Y-112164433D02*
X99090508Y-112052002D01*
X99511445Y-112483418D02*
X99496342Y-112435944D01*
X99250442Y-112790824D02*
X99262729Y-112791421D01*
X98980480Y-111640844D02*
X98994989Y-111571973D01*
X98781067Y-111919424D02*
X98795988Y-111908413D01*
X98934473Y-111751966D02*
X98957155Y-111705953D01*
X99441380Y-112356750D02*
X99403485Y-112326791D01*
X99054131Y-112396496D02*
X99047921Y-112406791D01*
X99024343Y-112304531D02*
X99027720Y-112311006D01*
X98590096Y-111995665D02*
X98664010Y-111977284D01*
X99511302Y-112592720D02*
X99517082Y-112549393D01*
X99055588Y-112680567D02*
X99087131Y-112717717D01*
X99058608Y-112379457D02*
X99055445Y-112394318D01*
X99311850Y-112290597D02*
X99273031Y-112285999D01*
X99516879Y-112522060D02*
X99511445Y-112483418D01*
X99517082Y-112549393D02*
X99517000Y-112534951D01*
X99047921Y-112406791D02*
X99024046Y-112460323D01*
X98664010Y-111977284D02*
X98732936Y-111947859D01*
X98957155Y-111705953D02*
X98980480Y-111640844D01*
X99433774Y-112726012D02*
X99468055Y-112688773D01*
X99024046Y-112460323D02*
X99011907Y-112517256D01*
X99014025Y-111919364D02*
X98947750Y-111804722D01*
X99207740Y-112256607D02*
X99194606Y-112233540D01*
X99273031Y-112285999D02*
X99260111Y-112286120D01*
X99348045Y-112776292D02*
X99393217Y-112755374D01*
X99242984Y-112284745D02*
X99229135Y-112279823D01*
X99031306Y-112636554D02*
X99055588Y-112680567D01*
X99496342Y-112435944D02*
X99472686Y-112393423D01*
X99239668Y-112790317D02*
X99250442Y-112790824D01*
X99055445Y-112394318D02*
X99054131Y-112396496D01*
X99090508Y-112052002D02*
X99014025Y-111919364D01*
X99055528Y-112362479D02*
X99056727Y-112364627D01*
X98732936Y-111947859D02*
X98781067Y-111919424D01*
X99194606Y-112233540D02*
X99155078Y-112164433D01*
X99209830Y-112260336D02*
X99207740Y-112256607D01*
X99217679Y-112270665D02*
X99209830Y-112260336D01*
X99229135Y-112279823D02*
X99217679Y-112270665D01*
X99359980Y-112304441D02*
X99311850Y-112290597D01*
X99468055Y-112688773D02*
X99494433Y-112644163D01*
X99494433Y-112644163D02*
X99511302Y-112592720D01*
X99053680Y-112359286D02*
X99055528Y-112362479D01*
X99255810Y-112286181D02*
X99242984Y-112284745D01*
X99403485Y-112326791D02*
X99359980Y-112304441D01*
X99016049Y-112585976D02*
X99031306Y-112636554D01*
X99042251Y-112338399D02*
X99053680Y-112359286D01*
X98795988Y-111908413D02*
X99024343Y-112304531D01*
X99393217Y-112755374D02*
X99433774Y-112726012D01*
X99011605Y-112529222D02*
X99011253Y-112543366D01*
X99517000Y-112534951D02*
X99516879Y-112522060D01*
X99299920Y-112788287D02*
X99348045Y-112776292D01*
X99262729Y-112791421D02*
X99299920Y-112788287D01*
X99087131Y-112717717D02*
X99124163Y-112747676D01*
X99124163Y-112747676D02*
X99164895Y-112770085D01*
X99011253Y-112543366D02*
X99016049Y-112585976D01*
X99011907Y-112517256D02*
X99011605Y-112529222D01*
X99207592Y-112784557D02*
X99239668Y-112790317D01*
X97655558Y-112791629D02*
X97694316Y-112790167D01*
X98054720Y-111674625D02*
X98027385Y-111722480D01*
X97517821Y-112745259D02*
X97559830Y-112769518D01*
X98512188Y-112001985D02*
X98531636Y-112001985D01*
X97481175Y-112713181D02*
X97517821Y-112745259D01*
X97606707Y-112292209D02*
X97572959Y-112302382D01*
X98013393Y-111595337D02*
X98036339Y-111611061D01*
X97417171Y-112590273D02*
X97428655Y-112628467D01*
X98531636Y-112001985D02*
X98590096Y-111995665D01*
X98235423Y-111913545D02*
X98319155Y-111961257D01*
X98162916Y-111850493D02*
X98179323Y-111867862D01*
X97880667Y-112346903D02*
X97914025Y-112287402D01*
X97912413Y-112583798D02*
X97916109Y-112523134D01*
X97875382Y-112355944D02*
X97880667Y-112346903D01*
X97904680Y-112461933D02*
X97885584Y-112416458D01*
X97725947Y-112248253D02*
X97723169Y-112253175D01*
X97874155Y-112398465D02*
X97868160Y-112379518D01*
X97885584Y-112416458D02*
X97876900Y-112402762D01*
X97461237Y-112386410D02*
X97436146Y-112427469D01*
X97638788Y-112286714D02*
X97621568Y-112289849D01*
X98027385Y-111722480D02*
X97753128Y-112200331D01*
X97916109Y-112523134D02*
X97904680Y-112461933D01*
X97428655Y-112628467D02*
X97451095Y-112674002D01*
X97894692Y-112641328D02*
X97912413Y-112583798D01*
X97723169Y-112253175D02*
X97713269Y-112266991D01*
X97769094Y-112769041D02*
X97821878Y-112736546D01*
X97722845Y-112785304D02*
X97769094Y-112769041D01*
X97412870Y-112564133D02*
X97415054Y-112577264D01*
X97713269Y-112266991D02*
X97698793Y-112279762D01*
X97530889Y-112322972D02*
X97493231Y-112351289D01*
X97419256Y-112473571D02*
X97411798Y-112523791D01*
X97868160Y-112379518D02*
X97872813Y-112360360D01*
X97606140Y-112785214D02*
X97655558Y-112791629D01*
X97876900Y-112402762D02*
X97874155Y-112398465D01*
X97655794Y-112285614D02*
X97638788Y-112286714D01*
X97864134Y-112693100D02*
X97894692Y-112641328D01*
X97966544Y-112190547D02*
X98162916Y-111850493D01*
X97753128Y-112200331D02*
X97725947Y-112248253D01*
X97559830Y-112769518D02*
X97606140Y-112785214D01*
X98052839Y-111669488D02*
X98054720Y-111674625D01*
X98487147Y-112001985D02*
X98512188Y-112001985D01*
X98412044Y-111991452D02*
X98487147Y-112001985D01*
X97956633Y-112209043D02*
X97966544Y-112190547D01*
X97872813Y-112360360D02*
X97875382Y-112355944D01*
X97451095Y-112674002D02*
X97481175Y-112713181D01*
X97914025Y-112287402D02*
X97956633Y-112209043D01*
X97493231Y-112351289D02*
X97461237Y-112386410D01*
X98319155Y-111961257D02*
X98412044Y-111991452D01*
X98037533Y-111616490D02*
X98052839Y-111669488D01*
X98179323Y-111867862D02*
X98235423Y-111913545D01*
X97821878Y-112736546D02*
X97864134Y-112693100D01*
X97415054Y-112577264D02*
X97417171Y-112590273D01*
X97659105Y-112286093D02*
X97655794Y-112285614D01*
X98036339Y-111611061D02*
X98037533Y-111616490D01*
X97706966Y-112787989D02*
X97722845Y-112785304D01*
X97681182Y-112286241D02*
X97664506Y-112286868D01*
X97694316Y-112790167D02*
X97706966Y-112787989D01*
X97411798Y-112523791D02*
X97412870Y-112564133D01*
X97436146Y-112427469D02*
X97419256Y-112473571D01*
X97621568Y-112289849D02*
X97618196Y-112290388D01*
X97618196Y-112290388D02*
X97606707Y-112292209D01*
X97664506Y-112286868D02*
X97659105Y-112286093D01*
X97698793Y-112279762D02*
X97681182Y-112286241D01*
X97572959Y-112302382D02*
X97530889Y-112322972D01*
X96612037Y-111128414D02*
X96612549Y-111173916D01*
X96722895Y-110940479D02*
X96687354Y-110969393D01*
X96774667Y-110913331D02*
X96764074Y-110917924D01*
X97100360Y-111250663D02*
X97110062Y-111245295D01*
X96808233Y-110903360D02*
X96774667Y-110913331D01*
X97088183Y-111266745D02*
X97093051Y-111258902D01*
X96979245Y-111376767D02*
X97038535Y-111333674D01*
X96941135Y-110908579D02*
X96897872Y-110898976D01*
X96913806Y-111399498D02*
X96979245Y-111376767D01*
X96827241Y-111400813D02*
X96847085Y-111402694D01*
X97806187Y-111025399D02*
X97801258Y-111056738D01*
X97801258Y-111056738D02*
X97746803Y-111056738D01*
X96621860Y-111219659D02*
X96627674Y-111238876D01*
X96704514Y-111348596D02*
X96768727Y-111385088D01*
X96655284Y-111293387D02*
X96704514Y-111348596D01*
X96627674Y-111238876D02*
X96655284Y-111293387D01*
X97081594Y-111024360D02*
X97078729Y-111019322D01*
X97142375Y-111057453D02*
X97125781Y-111055875D01*
X97975196Y-110730176D02*
X97894269Y-110823450D01*
X98074559Y-110657306D02*
X98047972Y-110672492D01*
X96618456Y-111208560D02*
X96621860Y-111219659D01*
X96619798Y-111084189D02*
X96612037Y-111128414D01*
X96897872Y-110898976D02*
X96853207Y-110897123D01*
X97202358Y-111057156D02*
X97147930Y-111057426D01*
X96635280Y-111042262D02*
X96619798Y-111084189D01*
X97147930Y-111057426D02*
X97142375Y-111057453D01*
X97019230Y-110950060D02*
X96981956Y-110925712D01*
X97072970Y-111009290D02*
X97051845Y-110981361D01*
X97125781Y-111055875D02*
X97107642Y-111049929D01*
X97107642Y-111049929D02*
X97092330Y-111038236D01*
X97894269Y-110823450D02*
X97835160Y-110933527D01*
X96847085Y-111402694D02*
X96863525Y-111404278D01*
X96753332Y-110922577D02*
X96722895Y-110940479D01*
X96768727Y-111385088D02*
X96827241Y-111400813D01*
X97805735Y-110192738D02*
X98074559Y-110657306D01*
X96612549Y-111173916D02*
X96618456Y-111208560D01*
X97086726Y-111269434D02*
X97088183Y-111266745D01*
X97951056Y-111538676D02*
X98013393Y-111595337D01*
X96764074Y-110917924D02*
X96753332Y-110922577D01*
X97882218Y-111450764D02*
X97951056Y-111538676D01*
X97806659Y-111268180D02*
X97831844Y-111350301D01*
X97077205Y-111286886D02*
X97086726Y-111269434D01*
X97038535Y-111333674D02*
X97077205Y-111286886D01*
X96863525Y-111404278D02*
X96913806Y-111399498D01*
X96853207Y-110897123D02*
X96808233Y-110903360D01*
X97746803Y-111056738D02*
X97202358Y-111057156D01*
X97092330Y-111038236D02*
X97081594Y-111024360D01*
X97831844Y-111350301D02*
X97882218Y-111450764D01*
X97802039Y-111240163D02*
X97806659Y-111268180D01*
X97315861Y-111243859D02*
X97802039Y-111240163D01*
X96981956Y-110925712D02*
X96941135Y-110908579D01*
X97805675Y-110192765D02*
X97805735Y-110192738D01*
X97110062Y-111245295D02*
X97120177Y-111243409D01*
X97299845Y-111243859D02*
X97315861Y-111243859D01*
X97093051Y-111258902D02*
X97100360Y-111250663D01*
X97835160Y-110933527D02*
X97806187Y-111025399D01*
X98047972Y-110672492D02*
X97975196Y-110730176D01*
X96657995Y-111003685D02*
X96635280Y-111042262D01*
X97051845Y-110981361D02*
X97019230Y-110950060D01*
X96687354Y-110969393D02*
X96657995Y-111003685D01*
X97139570Y-111243469D02*
X97299845Y-111243859D01*
X97123543Y-111243409D02*
X97139570Y-111243469D01*
X97120177Y-111243409D02*
X97123543Y-111243409D01*
X97078729Y-111019322D02*
X97072970Y-111009290D01*
X97687392Y-110015968D02*
X97699481Y-110020175D01*
X97587968Y-109521523D02*
X97539656Y-109542830D01*
X97649854Y-110015077D02*
X97672509Y-110014807D01*
X97581825Y-110001316D02*
X97649854Y-110015077D01*
X97506508Y-109960709D02*
X97581825Y-110001316D01*
X97416687Y-109810911D02*
X97421555Y-109833027D01*
X98213643Y-110531950D02*
X98205761Y-110518255D01*
X97780490Y-109538177D02*
X97737343Y-109520814D01*
X97852617Y-109593948D02*
X97819227Y-109562850D01*
X97874155Y-109942444D02*
X97871856Y-109938500D01*
X97909157Y-110002867D02*
X97906231Y-109997856D01*
X98119291Y-110367357D02*
X97909157Y-110002867D01*
X98552344Y-110331574D02*
X98469068Y-110346738D01*
X98580130Y-110331574D02*
X98552344Y-110331574D01*
X98777096Y-110381168D02*
X98692115Y-110347007D01*
X98469068Y-110346738D02*
X98369403Y-110389412D01*
X97641027Y-109510991D02*
X97627629Y-109512129D01*
X97737343Y-109520814D02*
X97690554Y-109511475D01*
X97912743Y-109718082D02*
X97910708Y-109706472D01*
X98608119Y-110331574D02*
X98580130Y-110331574D01*
X98214028Y-110532671D02*
X98213643Y-110531950D01*
X98219429Y-110541053D02*
X98218505Y-110539436D01*
X98284934Y-110455533D02*
X98232887Y-110517986D01*
X97879919Y-109630737D02*
X97852617Y-109593948D01*
X97906231Y-109997856D02*
X97877081Y-109947487D01*
X97910708Y-109706472D02*
X97900236Y-109672394D01*
X97798365Y-110180082D02*
X97805675Y-110192765D01*
X97725650Y-110053148D02*
X97798365Y-110180082D01*
X97884539Y-109886580D02*
X97912177Y-109812913D01*
X97718395Y-110040437D02*
X97725650Y-110053148D01*
X97411171Y-109757292D02*
X97413794Y-109797838D01*
X97627629Y-109512129D02*
X97587968Y-109521523D01*
X97872698Y-109904279D02*
X97875294Y-109900402D01*
X97716514Y-110037181D02*
X97718395Y-110040437D01*
X97709562Y-110028112D02*
X97716514Y-110037181D01*
X97819227Y-109562850D02*
X97780490Y-109538177D01*
X97877081Y-109947487D02*
X97874155Y-109942444D01*
X97497224Y-109573416D02*
X97461958Y-109611674D01*
X97699481Y-110020175D02*
X97709562Y-110028112D01*
X97450199Y-109896189D02*
X97506508Y-109960709D01*
X97676205Y-110014774D02*
X97687392Y-110015968D01*
X97672509Y-110014807D02*
X97676205Y-110014774D01*
X97417705Y-109705157D02*
X97411171Y-109757292D01*
X98232887Y-110517986D02*
X98219429Y-110541053D01*
X97421555Y-109833027D02*
X97450199Y-109896189D01*
X97413794Y-109797838D02*
X97416687Y-109810911D01*
X97912177Y-109812913D02*
X97915576Y-109734346D01*
X97653286Y-109509984D02*
X97641027Y-109510991D01*
X97915576Y-109734346D02*
X97912743Y-109718082D01*
X97435046Y-109656108D02*
X97417705Y-109705157D01*
X97461958Y-109611674D02*
X97435046Y-109656108D01*
X97539656Y-109542830D02*
X97497224Y-109573416D01*
X97875294Y-109900402D02*
X97884539Y-109886580D01*
X98692115Y-110347007D02*
X98608119Y-110331574D01*
X98792705Y-110390540D02*
X98777096Y-110381168D01*
X98218092Y-110538902D02*
X98214028Y-110532671D01*
X97690554Y-109511475D02*
X97653286Y-109509984D01*
X97900236Y-109672394D02*
X97879919Y-109630737D01*
X97867412Y-109921313D02*
X97872698Y-109904279D01*
X97871856Y-109938500D02*
X97867412Y-109921313D01*
X98205761Y-110518255D02*
X98127166Y-110381085D01*
X98218505Y-110539436D02*
X98218092Y-110538902D01*
X98369403Y-110389412D02*
X98284934Y-110455533D01*
X98127166Y-110381085D02*
X98119291Y-110367357D01*
X98687605Y-108242493D02*
X98668036Y-108256727D01*
X98582693Y-108460705D02*
X98578282Y-108478014D01*
X98731858Y-107966651D02*
X98796082Y-107975099D01*
X98733090Y-108232763D02*
X98727084Y-108232763D01*
X98843431Y-108334788D02*
X98820694Y-108279519D01*
X99087906Y-108413680D02*
X99087906Y-108448176D01*
X98649804Y-108279073D02*
X98632287Y-108311006D01*
X98790857Y-103495701D02*
X98728041Y-103463196D01*
X98730610Y-103825591D02*
X98768445Y-103785716D01*
X98851368Y-108408455D02*
X98851368Y-108390047D01*
X98806730Y-103732366D02*
X98830660Y-103676211D01*
X98975503Y-103935701D02*
X98924116Y-103990481D01*
X98728041Y-103463196D02*
X98659742Y-103451811D01*
X98736583Y-108232763D02*
X98733090Y-108232763D01*
X98784559Y-108244825D02*
X98748573Y-108232763D01*
X99075795Y-108551631D02*
X99039419Y-108686321D01*
X99062898Y-108233038D02*
X99081581Y-108319086D01*
X98838954Y-103598221D02*
X98827234Y-103547236D01*
X98838954Y-103630451D02*
X98838954Y-103615272D01*
X98838954Y-103615272D02*
X98838954Y-103598221D01*
X98796082Y-107975099D02*
X98871421Y-107999569D01*
X98830660Y-103676211D02*
X98838954Y-103630451D01*
X98851368Y-108433497D02*
X98851368Y-108408455D01*
X98748573Y-108232763D02*
X98736583Y-108232763D01*
X98924116Y-103990481D02*
X98905108Y-104006486D01*
X99073287Y-103738801D02*
X99033687Y-103847206D01*
X98917021Y-108903461D02*
X98893085Y-108930262D01*
X99087906Y-108448176D02*
X99075795Y-108551631D01*
X98597108Y-108409060D02*
X98582693Y-108460705D01*
X98614923Y-108353851D02*
X98597108Y-108409060D01*
X98668036Y-108256727D02*
X98649804Y-108279073D01*
X98764743Y-108688526D02*
X98811355Y-108601307D01*
X98893085Y-108930262D02*
X98703511Y-108771989D01*
X99087906Y-108390047D02*
X99087906Y-108413680D01*
X98659742Y-103451811D02*
X98637000Y-103451811D01*
X98632287Y-108311006D02*
X98614923Y-108353851D01*
X98727084Y-108232763D02*
X98709094Y-108234969D01*
X98851368Y-108390047D02*
X98843431Y-108334788D01*
X98124301Y-103451811D02*
X98124301Y-103451811D01*
X98840989Y-108508572D02*
X98851368Y-108433497D01*
X98989825Y-108091688D02*
X99032230Y-108156825D01*
X98768445Y-103785716D02*
X98806730Y-103732366D01*
X99087906Y-103640956D02*
X99073287Y-103738801D01*
X99081581Y-108319086D02*
X99087906Y-108390047D01*
X98811355Y-108601307D02*
X98840989Y-108508572D01*
X99039419Y-108686321D02*
X98978544Y-108813860D01*
X98827234Y-103547236D02*
X98790857Y-103495701D01*
X98717096Y-103837856D02*
X98730610Y-103825591D01*
X98719956Y-108752090D02*
X98764743Y-108688526D01*
X98936117Y-108038872D02*
X98989825Y-108091688D01*
X98978544Y-108813860D02*
X98917021Y-108903461D01*
X99033687Y-103847206D02*
X98975503Y-103935701D01*
X98637000Y-103451811D02*
X98124301Y-103451811D01*
X98871421Y-107999569D02*
X98936117Y-108038872D01*
X98710469Y-107966651D02*
X98731858Y-107966651D01*
X98905108Y-104006486D02*
X98717096Y-103837856D01*
X99032230Y-108156825D02*
X99062898Y-108233038D01*
X98527704Y-108644548D02*
X98496728Y-108713474D01*
X98554225Y-108565772D02*
X98527704Y-108644548D01*
X98703511Y-108771989D02*
X98719956Y-108752090D01*
X98572644Y-108500069D02*
X98554225Y-108565772D01*
X98709094Y-108234969D02*
X98687605Y-108242493D01*
X98820694Y-108279519D02*
X98784559Y-108244825D01*
X98578282Y-108478014D02*
X98572644Y-108500069D01*
X99259517Y-110014686D02*
X99273091Y-110015044D01*
X99209533Y-110040888D02*
X99217206Y-110030526D01*
X99198704Y-110058967D02*
X99206310Y-110046586D01*
X99149616Y-109537644D02*
X99098824Y-109571392D01*
X99012353Y-109779913D02*
X99024409Y-109839649D01*
X98829830Y-110332119D02*
X98826667Y-110337245D01*
X99035475Y-109975207D02*
X98848926Y-110298547D01*
X99043329Y-109884496D02*
X99051738Y-109898130D01*
X99058811Y-109614660D02*
X99030464Y-109665238D01*
X99264374Y-109508906D02*
X99223404Y-109512366D01*
X99364754Y-109994215D02*
X99410261Y-109968371D01*
X99449317Y-109933880D02*
X99480623Y-109892102D01*
X99513447Y-109722438D02*
X99503211Y-109682239D01*
X99514701Y-109791843D02*
X99516373Y-109749828D01*
X99030464Y-109665238D02*
X99014652Y-109721063D01*
X99503211Y-109682239D02*
X99481013Y-109633696D01*
X98848926Y-110298547D02*
X98830484Y-110330980D01*
X99410261Y-109968371D02*
X99449317Y-109933880D01*
X99056809Y-109938687D02*
X99054307Y-109942950D01*
X99014652Y-109721063D02*
X99012353Y-109779913D01*
X99480623Y-109892102D02*
X99502854Y-109844302D01*
X99255183Y-110014593D02*
X99259517Y-110014686D01*
X99314055Y-110010088D02*
X99364754Y-109994215D01*
X99242236Y-110016001D02*
X99255183Y-110014593D01*
X99366245Y-109530692D02*
X99316860Y-109514368D01*
X99502854Y-109844302D02*
X99514701Y-109791843D01*
X99207443Y-110044584D02*
X99209533Y-110040888D01*
X99516373Y-109749828D02*
X99514904Y-109736012D01*
X99273091Y-110015044D02*
X99314055Y-110010088D01*
X99411064Y-109556773D02*
X99366245Y-109530692D01*
X99206310Y-110046586D02*
X99207443Y-110044584D01*
X98807775Y-110367027D02*
X98796461Y-110384688D01*
X99060483Y-109920152D02*
X99056809Y-109938687D01*
X99054219Y-109902156D02*
X99060483Y-109920152D01*
X99024409Y-109839649D02*
X99043329Y-109884496D01*
X99514904Y-109736012D02*
X99513447Y-109722438D01*
X99449834Y-109591500D02*
X99411064Y-109556773D01*
X99481013Y-109633696D02*
X99449834Y-109591500D01*
X98796461Y-110384688D02*
X98792705Y-110390540D01*
X98819110Y-110349273D02*
X98807775Y-110367027D01*
X98826667Y-110337245D02*
X98819110Y-110349273D01*
X99223404Y-109512366D02*
X99210243Y-109515501D01*
X98830484Y-110330980D02*
X98829830Y-110332119D01*
X99054307Y-109942950D02*
X99035475Y-109975207D01*
X99316860Y-109514368D02*
X99264374Y-109508906D01*
X99051738Y-109898130D02*
X99054219Y-109902156D01*
X99228448Y-110021132D02*
X99242236Y-110016001D01*
X99217206Y-110030526D02*
X99228448Y-110021132D01*
X99098824Y-109571392D02*
X99058811Y-109614660D01*
X99194639Y-109519235D02*
X99149616Y-109537644D01*
X99210243Y-109515501D02*
X99194639Y-109519235D01*
X100309890Y-111088308D02*
X100286317Y-111028870D01*
X99847827Y-111282238D02*
X99882739Y-111325974D01*
X99810947Y-111057123D02*
X99806498Y-111057096D01*
X100109668Y-110901187D02*
X100088333Y-110898322D01*
X100311024Y-111207543D02*
X100317857Y-111158670D01*
X99000000Y-111496271D02*
X99000000Y-111243590D01*
X100294463Y-111253974D02*
X100311024Y-111207543D01*
X99739244Y-111243711D02*
X99803545Y-111243590D01*
X100197634Y-111364623D02*
X100236665Y-111333977D01*
X99031982Y-111243529D02*
X99096288Y-111243683D01*
X99021510Y-111243562D02*
X99029364Y-111243529D01*
X99806498Y-111057096D02*
X99744045Y-111056975D01*
X99188375Y-110074719D02*
X99198704Y-110058967D01*
X99000000Y-111496837D02*
X99000000Y-111496425D01*
X99000000Y-110744558D02*
X99000000Y-110737392D01*
X99052486Y-111057096D02*
X99038791Y-111057096D01*
X99839920Y-111034568D02*
X99838040Y-111038203D01*
X99803545Y-111243590D02*
X99808082Y-111243590D01*
X99890229Y-110966478D02*
X99849439Y-111016005D01*
X100317857Y-111158670D02*
X100316276Y-111121039D01*
X99185933Y-110078360D02*
X99188375Y-110074719D01*
X100072100Y-110896166D02*
X100022089Y-110899840D01*
X98929132Y-110522105D02*
X99185933Y-110078360D01*
X99119504Y-111056975D02*
X99057084Y-111057096D01*
X99057084Y-111057096D02*
X99052486Y-111057096D01*
X99837950Y-111261734D02*
X99839950Y-111265848D01*
X98995913Y-110698067D02*
X98974579Y-110613477D01*
X98998091Y-110718213D02*
X98997734Y-110715848D01*
X99038791Y-111057096D02*
X99009696Y-111057096D01*
X99009696Y-111057096D02*
X99000000Y-111057096D01*
X99838040Y-111038203D02*
X99827119Y-111051337D01*
X100117128Y-111398310D02*
X100153293Y-111387178D01*
X99839950Y-111265848D02*
X99847827Y-111282238D01*
X99953518Y-110922038D02*
X99890229Y-110966478D01*
X100172181Y-110921713D02*
X100109668Y-110901187D01*
X99096288Y-111243683D02*
X99739244Y-111243711D01*
X99004504Y-111243590D02*
X99021510Y-111243562D01*
X99944805Y-111372262D02*
X100020656Y-111398965D01*
X98938383Y-110536246D02*
X98929132Y-110522105D01*
X100269309Y-111296582D02*
X100294463Y-111253974D01*
X98974579Y-110613477D02*
X98938383Y-110536246D01*
X98997734Y-110715848D02*
X98995913Y-110698067D01*
X100104804Y-111400186D02*
X100117128Y-111398310D01*
X99000000Y-111057096D02*
X99000000Y-110744558D01*
X99744045Y-111056975D02*
X99119504Y-111056975D01*
X100316276Y-111121039D02*
X100313919Y-111108834D01*
X100238634Y-110965851D02*
X100172181Y-110921713D01*
X99825567Y-111248512D02*
X99837950Y-111261734D01*
X99000000Y-110737392D02*
X98998091Y-110718213D01*
X100022089Y-110899840D02*
X99953518Y-110922038D01*
X100084304Y-111403381D02*
X100104804Y-111400186D01*
X100286317Y-111028870D02*
X100238634Y-110965851D01*
X99882739Y-111325974D02*
X99944805Y-111372262D01*
X100236665Y-111333977D02*
X100269309Y-111296582D01*
X99827119Y-111051337D02*
X99810947Y-111057123D01*
X99849439Y-111016005D02*
X99839920Y-111034568D01*
X99808082Y-111243590D02*
X99825567Y-111248512D01*
X100088333Y-110898322D02*
X100072100Y-110896166D01*
X100313919Y-111108834D02*
X100309890Y-111088308D01*
X100153293Y-111387178D02*
X100197634Y-111364623D01*
X100020656Y-111398965D02*
X100084304Y-111403381D01*
X99029364Y-111243529D02*
X99031982Y-111243529D01*
X99000000Y-111496425D02*
X99000000Y-111496271D01*
X99000000Y-111243590D02*
X99004504Y-111243590D01*
X99000000Y-111499257D02*
X99000000Y-111497585D01*
X99000000Y-111497019D02*
X99000000Y-111496837D01*
X99000000Y-111497585D02*
X99000000Y-111497019D01*
X99000000Y-111500000D02*
X99000000Y-111499257D01*
D11*
X97960714Y-133714285D02*
X98627380Y-133476190D01*
X97960714Y-133238095D01*
X98627380Y-132333333D02*
X98627380Y-132904761D01*
X98627380Y-132619047D02*
X97627380Y-132619047D01*
X97770238Y-132714285D01*
X97865476Y-132809523D01*
X97913095Y-132904761D01*
X98532142Y-131904761D02*
X98579761Y-131857142D01*
X98627380Y-131904761D01*
X98579761Y-131952380D01*
X98532142Y-131904761D01*
X98627380Y-131904761D01*
X97627380Y-131238095D02*
X97627380Y-131142857D01*
X97675000Y-131047619D01*
X97722619Y-131000000D01*
X97817857Y-130952380D01*
X98008333Y-130904761D01*
X98246428Y-130904761D01*
X98436904Y-130952380D01*
X98532142Y-131000000D01*
X98579761Y-131047619D01*
X98627380Y-131142857D01*
X98627380Y-131238095D01*
X98579761Y-131333333D01*
X98532142Y-131380952D01*
X98436904Y-131428571D01*
X98246428Y-131476190D01*
X98008333Y-131476190D01*
X97817857Y-131428571D01*
X97722619Y-131380952D01*
X97675000Y-131333333D01*
X97627380Y-131238095D01*
X98246428Y-129714285D02*
X98246428Y-128952380D01*
X97722619Y-127761904D02*
X97675000Y-127714285D01*
X97627380Y-127619047D01*
X97627380Y-127380952D01*
X97675000Y-127285714D01*
X97722619Y-127238095D01*
X97817857Y-127190476D01*
X97913095Y-127190476D01*
X98055952Y-127238095D01*
X98627380Y-127809523D01*
X98627380Y-127190476D01*
X97627380Y-126571428D02*
X97627380Y-126476190D01*
X97675000Y-126380952D01*
X97722619Y-126333333D01*
X97817857Y-126285714D01*
X98008333Y-126238095D01*
X98246428Y-126238095D01*
X98436904Y-126285714D01*
X98532142Y-126333333D01*
X98579761Y-126380952D01*
X98627380Y-126476190D01*
X98627380Y-126571428D01*
X98579761Y-126666666D01*
X98532142Y-126714285D01*
X98436904Y-126761904D01*
X98246428Y-126809523D01*
X98008333Y-126809523D01*
X97817857Y-126761904D01*
X97722619Y-126714285D01*
X97675000Y-126666666D01*
X97627380Y-126571428D01*
X97722619Y-125857142D02*
X97675000Y-125809523D01*
X97627380Y-125714285D01*
X97627380Y-125476190D01*
X97675000Y-125380952D01*
X97722619Y-125333333D01*
X97817857Y-125285714D01*
X97913095Y-125285714D01*
X98055952Y-125333333D01*
X98627380Y-125904761D01*
X98627380Y-125285714D01*
X97627380Y-124666666D02*
X97627380Y-124571428D01*
X97675000Y-124476190D01*
X97722619Y-124428571D01*
X97817857Y-124380952D01*
X98008333Y-124333333D01*
X98246428Y-124333333D01*
X98436904Y-124380952D01*
X98532142Y-124428571D01*
X98579761Y-124476190D01*
X98627380Y-124571428D01*
X98627380Y-124666666D01*
X98579761Y-124761904D01*
X98532142Y-124809523D01*
X98436904Y-124857142D01*
X98246428Y-124904761D01*
X98008333Y-124904761D01*
X97817857Y-124857142D01*
X97722619Y-124809523D01*
X97675000Y-124761904D01*
X97627380Y-124666666D01*
X100277380Y-131904761D02*
X99277380Y-131904761D01*
X99991666Y-131571428D01*
X99277380Y-131238095D01*
X100277380Y-131238095D01*
X100277380Y-130761904D02*
X99277380Y-130761904D01*
X100277380Y-130190476D01*
X99277380Y-130190476D01*
X100229761Y-129666666D02*
X100277380Y-129666666D01*
X100372619Y-129714285D01*
X100420238Y-129761904D01*
X99277380Y-128476190D02*
X100086904Y-128476190D01*
X100182142Y-128428571D01*
X100229761Y-128380952D01*
X100277380Y-128285714D01*
X100277380Y-128095238D01*
X100229761Y-128000000D01*
X100182142Y-127952380D01*
X100086904Y-127904761D01*
X99277380Y-127904761D01*
X100229761Y-127476190D02*
X100277380Y-127333333D01*
X100277380Y-127095238D01*
X100229761Y-127000000D01*
X100182142Y-126952380D01*
X100086904Y-126904761D01*
X99991666Y-126904761D01*
X99896428Y-126952380D01*
X99848809Y-127000000D01*
X99801190Y-127095238D01*
X99753571Y-127285714D01*
X99705952Y-127380952D01*
X99658333Y-127428571D01*
X99563095Y-127476190D01*
X99467857Y-127476190D01*
X99372619Y-127428571D01*
X99325000Y-127380952D01*
X99277380Y-127285714D01*
X99277380Y-127047619D01*
X99325000Y-126904761D01*
X99991666Y-126523809D02*
X99991666Y-126047619D01*
X100277380Y-126619047D02*
X99277380Y-126285714D01*
X100277380Y-125952380D01*
X96904761Y-134690476D02*
X96952380Y-134547619D01*
X96952380Y-134309523D01*
X96904761Y-134214285D01*
X96857142Y-134166666D01*
X96761904Y-134119047D01*
X96666666Y-134119047D01*
X96571428Y-134166666D01*
X96523809Y-134214285D01*
X96476190Y-134309523D01*
X96428571Y-134500000D01*
X96380952Y-134595238D01*
X96333333Y-134642857D01*
X96238095Y-134690476D01*
X96142857Y-134690476D01*
X96047619Y-134642857D01*
X96000000Y-134595238D01*
X95952380Y-134500000D01*
X95952380Y-134261904D01*
X96000000Y-134119047D01*
X96285714Y-133833333D02*
X96285714Y-133452380D01*
X95952380Y-133690476D02*
X96809523Y-133690476D01*
X96904761Y-133642857D01*
X96952380Y-133547619D01*
X96952380Y-133452380D01*
X96952380Y-132976190D02*
X96904761Y-133071428D01*
X96857142Y-133119047D01*
X96761904Y-133166666D01*
X96476190Y-133166666D01*
X96380952Y-133119047D01*
X96333333Y-133071428D01*
X96285714Y-132976190D01*
X96285714Y-132833333D01*
X96333333Y-132738095D01*
X96380952Y-132690476D01*
X96476190Y-132642857D01*
X96761904Y-132642857D01*
X96857142Y-132690476D01*
X96904761Y-132738095D01*
X96952380Y-132833333D01*
X96952380Y-132976190D01*
X96952380Y-132214285D02*
X96285714Y-132214285D01*
X96476190Y-132214285D02*
X96380952Y-132166666D01*
X96333333Y-132119047D01*
X96285714Y-132023809D01*
X96285714Y-131928571D01*
X96285714Y-131595238D02*
X97142857Y-131595238D01*
X97238095Y-131642857D01*
X97285714Y-131738095D01*
X97285714Y-131785714D01*
X95952380Y-131595238D02*
X96000000Y-131642857D01*
X96047619Y-131595238D01*
X96000000Y-131547619D01*
X95952380Y-131595238D01*
X96047619Y-131595238D01*
X96952380Y-130357142D02*
X95952380Y-130357142D01*
X96952380Y-129785714D01*
X95952380Y-129785714D01*
X96952380Y-129166666D02*
X96904761Y-129261904D01*
X96857142Y-129309523D01*
X96761904Y-129357142D01*
X96476190Y-129357142D01*
X96380952Y-129309523D01*
X96333333Y-129261904D01*
X96285714Y-129166666D01*
X96285714Y-129023809D01*
X96333333Y-128928571D01*
X96380952Y-128880952D01*
X96476190Y-128833333D01*
X96761904Y-128833333D01*
X96857142Y-128880952D01*
X96904761Y-128928571D01*
X96952380Y-129023809D01*
X96952380Y-129166666D01*
X96952380Y-127976190D02*
X95952380Y-127976190D01*
X96904761Y-127976190D02*
X96952380Y-128071428D01*
X96952380Y-128261904D01*
X96904761Y-128357142D01*
X96857142Y-128404761D01*
X96761904Y-128452380D01*
X96476190Y-128452380D01*
X96380952Y-128404761D01*
X96333333Y-128357142D01*
X96285714Y-128261904D01*
X96285714Y-128071428D01*
X96333333Y-127976190D01*
X96904761Y-127119047D02*
X96952380Y-127214285D01*
X96952380Y-127404761D01*
X96904761Y-127500000D01*
X96809523Y-127547619D01*
X96428571Y-127547619D01*
X96333333Y-127500000D01*
X96285714Y-127404761D01*
X96285714Y-127214285D01*
X96333333Y-127119047D01*
X96428571Y-127071428D01*
X96523809Y-127071428D01*
X96619047Y-127547619D01*
X96952380Y-125880952D02*
X95952380Y-125880952D01*
X95952380Y-125500000D01*
X96000000Y-125404761D01*
X96047619Y-125357142D01*
X96142857Y-125309523D01*
X96285714Y-125309523D01*
X96380952Y-125357142D01*
X96428571Y-125404761D01*
X96476190Y-125500000D01*
X96476190Y-125880952D01*
X96904761Y-124928571D02*
X96952380Y-124785714D01*
X96952380Y-124547619D01*
X96904761Y-124452380D01*
X96857142Y-124404761D01*
X96761904Y-124357142D01*
X96666666Y-124357142D01*
X96571428Y-124404761D01*
X96523809Y-124452380D01*
X96476190Y-124547619D01*
X96428571Y-124738095D01*
X96380952Y-124833333D01*
X96333333Y-124880952D01*
X96238095Y-124928571D01*
X96142857Y-124928571D01*
X96047619Y-124880952D01*
X96000000Y-124833333D01*
X95952380Y-124738095D01*
X95952380Y-124500000D01*
X96000000Y-124357142D01*
X95952380Y-123928571D02*
X96761904Y-123928571D01*
X96857142Y-123880952D01*
X96904761Y-123833333D01*
X96952380Y-123738095D01*
X96952380Y-123547619D01*
X96904761Y-123452380D01*
X96857142Y-123404761D01*
X96761904Y-123357142D01*
X95952380Y-123357142D01*
X108238095Y-133452380D02*
X108904761Y-133452380D01*
X108238095Y-134452380D01*
X108904761Y-134452380D01*
X109714285Y-134452380D02*
X109714285Y-133928571D01*
X109666666Y-133833333D01*
X109571428Y-133785714D01*
X109380952Y-133785714D01*
X109285714Y-133833333D01*
X109714285Y-134404761D02*
X109619047Y-134452380D01*
X109380952Y-134452380D01*
X109285714Y-134404761D01*
X109238095Y-134309523D01*
X109238095Y-134214285D01*
X109285714Y-134119047D01*
X109380952Y-134071428D01*
X109619047Y-134071428D01*
X109714285Y-134023809D01*
X110619047Y-134404761D02*
X110523809Y-134452380D01*
X110333333Y-134452380D01*
X110238095Y-134404761D01*
X110190476Y-134357142D01*
X110142857Y-134261904D01*
X110142857Y-133976190D01*
X110190476Y-133880952D01*
X110238095Y-133833333D01*
X110333333Y-133785714D01*
X110523809Y-133785714D01*
X110619047Y-133833333D01*
X111047619Y-134452380D02*
X111047619Y-133452380D01*
X111476190Y-134452380D02*
X111476190Y-133928571D01*
X111428571Y-133833333D01*
X111333333Y-133785714D01*
X111190476Y-133785714D01*
X111095238Y-133833333D01*
X111047619Y-133880952D01*
X112666666Y-134404761D02*
X112809523Y-134452380D01*
X113047619Y-134452380D01*
X113142857Y-134404761D01*
X113190476Y-134357142D01*
X113238095Y-134261904D01*
X113238095Y-134166666D01*
X113190476Y-134071428D01*
X113142857Y-134023809D01*
X113047619Y-133976190D01*
X112857142Y-133928571D01*
X112761904Y-133880952D01*
X112714285Y-133833333D01*
X112666666Y-133738095D01*
X112666666Y-133642857D01*
X112714285Y-133547619D01*
X112761904Y-133500000D01*
X112857142Y-133452380D01*
X113095238Y-133452380D01*
X113238095Y-133500000D01*
X113666666Y-134452380D02*
X113666666Y-133452380D01*
X113761904Y-134071428D02*
X114047619Y-134452380D01*
X114047619Y-133785714D02*
X113666666Y-134166666D01*
X114904761Y-133785714D02*
X114904761Y-134452380D01*
X114476190Y-133785714D02*
X114476190Y-134309523D01*
X114523809Y-134404761D01*
X114619047Y-134452380D01*
X114761904Y-134452380D01*
X114857142Y-134404761D01*
X114904761Y-134357142D01*
X115380952Y-134452380D02*
X115380952Y-133452380D01*
X115380952Y-133833333D02*
X115476190Y-133785714D01*
X115666666Y-133785714D01*
X115761904Y-133833333D01*
X115809523Y-133880952D01*
X115857142Y-133976190D01*
X115857142Y-134261904D01*
X115809523Y-134357142D01*
X115761904Y-134404761D01*
X115666666Y-134452380D01*
X115476190Y-134452380D01*
X115380952Y-134404761D01*
X116285714Y-134452380D02*
X116285714Y-133785714D01*
X116285714Y-133452380D02*
X116238095Y-133500000D01*
X116285714Y-133547619D01*
X116333333Y-133500000D01*
X116285714Y-133452380D01*
X116285714Y-133547619D01*
X117190476Y-134404761D02*
X117095238Y-134452380D01*
X116904761Y-134452380D01*
X116809523Y-134404761D01*
X116761904Y-134357142D01*
X116714285Y-134261904D01*
X116714285Y-133976190D01*
X116761904Y-133880952D01*
X116809523Y-133833333D01*
X116904761Y-133785714D01*
X117095238Y-133785714D01*
X117190476Y-133833333D01*
X119190476Y-134452380D02*
X119142857Y-134452380D01*
X119047619Y-134404761D01*
X118904761Y-134261904D01*
X118666666Y-133976190D01*
X118571428Y-133833333D01*
X118523809Y-133690476D01*
X118523809Y-133595238D01*
X118571428Y-133500000D01*
X118666666Y-133452380D01*
X118714285Y-133452380D01*
X118809523Y-133500000D01*
X118857142Y-133595238D01*
X118857142Y-133642857D01*
X118809523Y-133738095D01*
X118761904Y-133785714D01*
X118476190Y-133976190D01*
X118428571Y-134023809D01*
X118380952Y-134119047D01*
X118380952Y-134261904D01*
X118428571Y-134357142D01*
X118476190Y-134404761D01*
X118571428Y-134452380D01*
X118714285Y-134452380D01*
X118809523Y-134404761D01*
X118857142Y-134357142D01*
X119000000Y-134166666D01*
X119047619Y-134023809D01*
X119047619Y-133928571D01*
X120952380Y-134357142D02*
X120904761Y-134404761D01*
X120761904Y-134452380D01*
X120666666Y-134452380D01*
X120523809Y-134404761D01*
X120428571Y-134309523D01*
X120380952Y-134214285D01*
X120333333Y-134023809D01*
X120333333Y-133880952D01*
X120380952Y-133690476D01*
X120428571Y-133595238D01*
X120523809Y-133500000D01*
X120666666Y-133452380D01*
X120761904Y-133452380D01*
X120904761Y-133500000D01*
X120952380Y-133547619D01*
X121380952Y-134452380D02*
X121380952Y-133452380D01*
X121809523Y-134452380D02*
X121809523Y-133928571D01*
X121761904Y-133833333D01*
X121666666Y-133785714D01*
X121523809Y-133785714D01*
X121428571Y-133833333D01*
X121380952Y-133880952D01*
X122285714Y-134452380D02*
X122285714Y-133785714D01*
X122285714Y-133976190D02*
X122333333Y-133880952D01*
X122380952Y-133833333D01*
X122476190Y-133785714D01*
X122571428Y-133785714D01*
X122904761Y-134452380D02*
X122904761Y-133785714D01*
X122904761Y-133452380D02*
X122857142Y-133500000D01*
X122904761Y-133547619D01*
X122952380Y-133500000D01*
X122904761Y-133452380D01*
X122904761Y-133547619D01*
X123333333Y-134404761D02*
X123428571Y-134452380D01*
X123619047Y-134452380D01*
X123714285Y-134404761D01*
X123761904Y-134309523D01*
X123761904Y-134261904D01*
X123714285Y-134166666D01*
X123619047Y-134119047D01*
X123476190Y-134119047D01*
X123380952Y-134071428D01*
X123333333Y-133976190D01*
X123333333Y-133928571D01*
X123380952Y-133833333D01*
X123476190Y-133785714D01*
X123619047Y-133785714D01*
X123714285Y-133833333D01*
X124047619Y-133785714D02*
X124428571Y-133785714D01*
X124190476Y-133452380D02*
X124190476Y-134309523D01*
X124238095Y-134404761D01*
X124333333Y-134452380D01*
X124428571Y-134452380D01*
X124761904Y-134452380D02*
X124761904Y-133785714D01*
X124761904Y-133452380D02*
X124714285Y-133500000D01*
X124761904Y-133547619D01*
X124809523Y-133500000D01*
X124761904Y-133452380D01*
X124761904Y-133547619D01*
X125666666Y-134452380D02*
X125666666Y-133928571D01*
X125619047Y-133833333D01*
X125523809Y-133785714D01*
X125333333Y-133785714D01*
X125238095Y-133833333D01*
X125666666Y-134404761D02*
X125571428Y-134452380D01*
X125333333Y-134452380D01*
X125238095Y-134404761D01*
X125190476Y-134309523D01*
X125190476Y-134214285D01*
X125238095Y-134119047D01*
X125333333Y-134071428D01*
X125571428Y-134071428D01*
X125666666Y-134023809D01*
X126142857Y-133785714D02*
X126142857Y-134452380D01*
X126142857Y-133880952D02*
X126190476Y-133833333D01*
X126285714Y-133785714D01*
X126428571Y-133785714D01*
X126523809Y-133833333D01*
X126571428Y-133928571D01*
X126571428Y-134452380D01*
X127809523Y-134452380D02*
X127809523Y-133452380D01*
X128380952Y-134452380D02*
X127952380Y-133880952D01*
X128380952Y-133452380D02*
X127809523Y-134023809D01*
X128809523Y-134452380D02*
X128809523Y-133785714D01*
X128809523Y-133976190D02*
X128857142Y-133880952D01*
X128904761Y-133833333D01*
X128999999Y-133785714D01*
X129095238Y-133785714D01*
X129857142Y-134452380D02*
X129857142Y-133928571D01*
X129809523Y-133833333D01*
X129714285Y-133785714D01*
X129523809Y-133785714D01*
X129428571Y-133833333D01*
X129857142Y-134404761D02*
X129761904Y-134452380D01*
X129523809Y-134452380D01*
X129428571Y-134404761D01*
X129380952Y-134309523D01*
X129380952Y-134214285D01*
X129428571Y-134119047D01*
X129523809Y-134071428D01*
X129761904Y-134071428D01*
X129857142Y-134023809D01*
X130333333Y-134452380D02*
X130333333Y-133785714D01*
X130333333Y-133880952D02*
X130380952Y-133833333D01*
X130476190Y-133785714D01*
X130619047Y-133785714D01*
X130714285Y-133833333D01*
X130761904Y-133928571D01*
X130761904Y-134452380D01*
X130761904Y-133928571D02*
X130809523Y-133833333D01*
X130904761Y-133785714D01*
X131047619Y-133785714D01*
X131142857Y-133833333D01*
X131190476Y-133928571D01*
X131190476Y-134452380D01*
X132047619Y-134404761D02*
X131952380Y-134452380D01*
X131761904Y-134452380D01*
X131666666Y-134404761D01*
X131619047Y-134309523D01*
X131619047Y-133928571D01*
X131666666Y-133833333D01*
X131761904Y-133785714D01*
X131952380Y-133785714D01*
X132047619Y-133833333D01*
X132095238Y-133928571D01*
X132095238Y-134023809D01*
X131619047Y-134119047D01*
X132523809Y-134452380D02*
X132523809Y-133785714D01*
X132523809Y-133976190D02*
X132571428Y-133880952D01*
X132619047Y-133833333D01*
X132714285Y-133785714D01*
X132809523Y-133785714D01*
X132452380Y-111285714D02*
X131452380Y-111285714D01*
X131928571Y-111285714D02*
X131928571Y-110714285D01*
X132452380Y-110714285D02*
X131452380Y-110714285D01*
X132452380Y-110238095D02*
X131452380Y-110238095D01*
X131452380Y-110000000D01*
X131500000Y-109857142D01*
X131595238Y-109761904D01*
X131690476Y-109714285D01*
X131880952Y-109666666D01*
X132023809Y-109666666D01*
X132214285Y-109714285D01*
X132309523Y-109761904D01*
X132404761Y-109857142D01*
X132452380Y-110000000D01*
X132452380Y-110238095D01*
X132452380Y-109238095D02*
X131452380Y-109238095D01*
X131452380Y-109000000D01*
X131500000Y-108857142D01*
X131595238Y-108761904D01*
X131690476Y-108714285D01*
X131880952Y-108666666D01*
X132023809Y-108666666D01*
X132214285Y-108714285D01*
X132309523Y-108761904D01*
X132404761Y-108857142D01*
X132452380Y-109000000D01*
X132452380Y-109238095D01*
X136666666Y-110928571D02*
X136809523Y-110976190D01*
X136857142Y-111023809D01*
X136904761Y-111119047D01*
X136904761Y-111261904D01*
X136857142Y-111357142D01*
X136809523Y-111404761D01*
X136714285Y-111452380D01*
X136333333Y-111452380D01*
X136333333Y-110452380D01*
X136666666Y-110452380D01*
X136761904Y-110500000D01*
X136809523Y-110547619D01*
X136857142Y-110642857D01*
X136857142Y-110738095D01*
X136809523Y-110833333D01*
X136761904Y-110880952D01*
X136666666Y-110928571D01*
X136333333Y-110928571D01*
X137809523Y-111452380D02*
X137333333Y-111452380D01*
X137333333Y-110452380D01*
X138142857Y-111452380D02*
X138142857Y-110452380D01*
X138714285Y-111452380D02*
X138285714Y-110880952D01*
X138714285Y-110452380D02*
X138142857Y-111023809D01*
X136666666Y-108428571D02*
X136809523Y-108476190D01*
X136857142Y-108523809D01*
X136904761Y-108619047D01*
X136904761Y-108761904D01*
X136857142Y-108857142D01*
X136809523Y-108904761D01*
X136714285Y-108952380D01*
X136333333Y-108952380D01*
X136333333Y-107952380D01*
X136666666Y-107952380D01*
X136761904Y-108000000D01*
X136809523Y-108047619D01*
X136857142Y-108142857D01*
X136857142Y-108238095D01*
X136809523Y-108333333D01*
X136761904Y-108380952D01*
X136666666Y-108428571D01*
X136333333Y-108428571D01*
X137809523Y-108952380D02*
X137333333Y-108952380D01*
X137333333Y-107952380D01*
X138142857Y-108952380D02*
X138142857Y-107952380D01*
X138714285Y-108952380D02*
X138285714Y-108380952D01*
X138714285Y-107952380D02*
X138142857Y-108523809D01*
X136523809Y-105976190D02*
X136523809Y-106452380D01*
X136190476Y-105452380D02*
X136523809Y-105976190D01*
X136857142Y-105452380D01*
X137666666Y-106452380D02*
X137190476Y-106452380D01*
X137190476Y-105452380D01*
X137904761Y-105452380D02*
X138142857Y-106452380D01*
X138333333Y-105738095D01*
X138523809Y-106452380D01*
X138761904Y-105452380D01*
X136857142Y-114452380D02*
X136523809Y-113976190D01*
X136285714Y-114452380D02*
X136285714Y-113452380D01*
X136666666Y-113452380D01*
X136761904Y-113500000D01*
X136809523Y-113547619D01*
X136857142Y-113642857D01*
X136857142Y-113785714D01*
X136809523Y-113880952D01*
X136761904Y-113928571D01*
X136666666Y-113976190D01*
X136285714Y-113976190D01*
X137285714Y-113928571D02*
X137619047Y-113928571D01*
X137761904Y-114452380D02*
X137285714Y-114452380D01*
X137285714Y-113452380D01*
X137761904Y-113452380D01*
X138190476Y-114452380D02*
X138190476Y-113452380D01*
X138428571Y-113452380D01*
X138571428Y-113500000D01*
X138666666Y-113595238D01*
X138714285Y-113690476D01*
X138761904Y-113880952D01*
X138761904Y-114023809D01*
X138714285Y-114214285D01*
X138666666Y-114309523D01*
X138571428Y-114404761D01*
X138428571Y-114452380D01*
X138190476Y-114452380D01*
D12*
X141500000Y-113500000D02*
X141500000Y-135500000D01*
X148500000Y-113500000D02*
X141500000Y-113500000D01*
X148500000Y-102000000D02*
X148500000Y-113500000D01*
X147000000Y-102000000D02*
X148500000Y-102000000D01*
X147000000Y-102000000D02*
X94500000Y-102000000D01*
X94500000Y-112500000D02*
X94500000Y-102000000D01*
X94500000Y-135500000D02*
X141500000Y-135500000D01*
X94500000Y-112500000D02*
X94500000Y-135500000D01*
D13*
%TO.C,C1*%
X121465000Y-109254775D02*
X121965000Y-109254775D01*
X121715000Y-109504775D02*
X121715000Y-109004775D01*
X122906000Y-104099000D02*
X123474000Y-104099000D01*
X122672000Y-104139000D02*
X123708000Y-104139000D01*
X122513000Y-104179000D02*
X123867000Y-104179000D01*
X122385000Y-104219000D02*
X123995000Y-104219000D01*
X122275000Y-104259000D02*
X124105000Y-104259000D01*
X122179000Y-104299000D02*
X124201000Y-104299000D01*
X122092000Y-104339000D02*
X124288000Y-104339000D01*
X122012000Y-104379000D02*
X124368000Y-104379000D01*
X124230000Y-104419000D02*
X124441000Y-104419000D01*
X121939000Y-104419000D02*
X122150000Y-104419000D01*
X124230000Y-104459000D02*
X124509000Y-104459000D01*
X121871000Y-104459000D02*
X122150000Y-104459000D01*
X124230000Y-104499000D02*
X124573000Y-104499000D01*
X121807000Y-104499000D02*
X122150000Y-104499000D01*
X124230000Y-104539000D02*
X124633000Y-104539000D01*
X121747000Y-104539000D02*
X122150000Y-104539000D01*
X124230000Y-104579000D02*
X124690000Y-104579000D01*
X121690000Y-104579000D02*
X122150000Y-104579000D01*
X124230000Y-104619000D02*
X124744000Y-104619000D01*
X121636000Y-104619000D02*
X122150000Y-104619000D01*
X124230000Y-104659000D02*
X124795000Y-104659000D01*
X121585000Y-104659000D02*
X122150000Y-104659000D01*
X124230000Y-104699000D02*
X124843000Y-104699000D01*
X121537000Y-104699000D02*
X122150000Y-104699000D01*
X124230000Y-104739000D02*
X124889000Y-104739000D01*
X121491000Y-104739000D02*
X122150000Y-104739000D01*
X124230000Y-104779000D02*
X124933000Y-104779000D01*
X121447000Y-104779000D02*
X122150000Y-104779000D01*
X124230000Y-104819000D02*
X124975000Y-104819000D01*
X121405000Y-104819000D02*
X122150000Y-104819000D01*
X124230000Y-104859000D02*
X125016000Y-104859000D01*
X121364000Y-104859000D02*
X122150000Y-104859000D01*
X124230000Y-104899000D02*
X125054000Y-104899000D01*
X121326000Y-104899000D02*
X122150000Y-104899000D01*
X124230000Y-104939000D02*
X125091000Y-104939000D01*
X121289000Y-104939000D02*
X122150000Y-104939000D01*
X124230000Y-104979000D02*
X125127000Y-104979000D01*
X121253000Y-104979000D02*
X122150000Y-104979000D01*
X124230000Y-105019000D02*
X125161000Y-105019000D01*
X121219000Y-105019000D02*
X122150000Y-105019000D01*
X124230000Y-105059000D02*
X125194000Y-105059000D01*
X121186000Y-105059000D02*
X122150000Y-105059000D01*
X124230000Y-105099000D02*
X125225000Y-105099000D01*
X121155000Y-105099000D02*
X122150000Y-105099000D01*
X124230000Y-105139000D02*
X125255000Y-105139000D01*
X121125000Y-105139000D02*
X122150000Y-105139000D01*
X124230000Y-105179000D02*
X125285000Y-105179000D01*
X121095000Y-105179000D02*
X122150000Y-105179000D01*
X124230000Y-105219000D02*
X125312000Y-105219000D01*
X121068000Y-105219000D02*
X122150000Y-105219000D01*
X124230000Y-105259000D02*
X125339000Y-105259000D01*
X121041000Y-105259000D02*
X122150000Y-105259000D01*
X124230000Y-105299000D02*
X125365000Y-105299000D01*
X121015000Y-105299000D02*
X122150000Y-105299000D01*
X124230000Y-105339000D02*
X125390000Y-105339000D01*
X120990000Y-105339000D02*
X122150000Y-105339000D01*
X124230000Y-105379000D02*
X125414000Y-105379000D01*
X120966000Y-105379000D02*
X122150000Y-105379000D01*
X124230000Y-105419000D02*
X125437000Y-105419000D01*
X120943000Y-105419000D02*
X122150000Y-105419000D01*
X124230000Y-105459000D02*
X125458000Y-105459000D01*
X120922000Y-105459000D02*
X122150000Y-105459000D01*
X124230000Y-105499000D02*
X125480000Y-105499000D01*
X120900000Y-105499000D02*
X122150000Y-105499000D01*
X124230000Y-105539000D02*
X125500000Y-105539000D01*
X120880000Y-105539000D02*
X122150000Y-105539000D01*
X124230000Y-105579000D02*
X125519000Y-105579000D01*
X120861000Y-105579000D02*
X122150000Y-105579000D01*
X124230000Y-105619000D02*
X125538000Y-105619000D01*
X120842000Y-105619000D02*
X122150000Y-105619000D01*
X124230000Y-105659000D02*
X125555000Y-105659000D01*
X120825000Y-105659000D02*
X122150000Y-105659000D01*
X124230000Y-105699000D02*
X125572000Y-105699000D01*
X120808000Y-105699000D02*
X122150000Y-105699000D01*
X124230000Y-105739000D02*
X125588000Y-105739000D01*
X120792000Y-105739000D02*
X122150000Y-105739000D01*
X124230000Y-105779000D02*
X125604000Y-105779000D01*
X120776000Y-105779000D02*
X122150000Y-105779000D01*
X124230000Y-105819000D02*
X125618000Y-105819000D01*
X120762000Y-105819000D02*
X122150000Y-105819000D01*
X124230000Y-105859000D02*
X125632000Y-105859000D01*
X120748000Y-105859000D02*
X122150000Y-105859000D01*
X124230000Y-105899000D02*
X125645000Y-105899000D01*
X120735000Y-105899000D02*
X122150000Y-105899000D01*
X124230000Y-105939000D02*
X125658000Y-105939000D01*
X120722000Y-105939000D02*
X122150000Y-105939000D01*
X124230000Y-105979000D02*
X125670000Y-105979000D01*
X120710000Y-105979000D02*
X122150000Y-105979000D01*
X124230000Y-106020000D02*
X125681000Y-106020000D01*
X120699000Y-106020000D02*
X122150000Y-106020000D01*
X124230000Y-106060000D02*
X125691000Y-106060000D01*
X120689000Y-106060000D02*
X122150000Y-106060000D01*
X124230000Y-106100000D02*
X125701000Y-106100000D01*
X120679000Y-106100000D02*
X122150000Y-106100000D01*
X124230000Y-106140000D02*
X125710000Y-106140000D01*
X120670000Y-106140000D02*
X122150000Y-106140000D01*
X124230000Y-106180000D02*
X125718000Y-106180000D01*
X120662000Y-106180000D02*
X122150000Y-106180000D01*
X124230000Y-106220000D02*
X125726000Y-106220000D01*
X120654000Y-106220000D02*
X122150000Y-106220000D01*
X124230000Y-106260000D02*
X125733000Y-106260000D01*
X120647000Y-106260000D02*
X122150000Y-106260000D01*
X124230000Y-106300000D02*
X125740000Y-106300000D01*
X120640000Y-106300000D02*
X122150000Y-106300000D01*
X124230000Y-106340000D02*
X125746000Y-106340000D01*
X120634000Y-106340000D02*
X122150000Y-106340000D01*
X124230000Y-106380000D02*
X125751000Y-106380000D01*
X120629000Y-106380000D02*
X122150000Y-106380000D01*
X124230000Y-106420000D02*
X125755000Y-106420000D01*
X120625000Y-106420000D02*
X122150000Y-106420000D01*
X124230000Y-106460000D02*
X125759000Y-106460000D01*
X120621000Y-106460000D02*
X122150000Y-106460000D01*
X120617000Y-106500000D02*
X125763000Y-106500000D01*
X120614000Y-106540000D02*
X125766000Y-106540000D01*
X120612000Y-106580000D02*
X125768000Y-106580000D01*
X120611000Y-106620000D02*
X125769000Y-106620000D01*
X120610000Y-106660000D02*
X125770000Y-106660000D01*
X120610000Y-106700000D02*
X125770000Y-106700000D01*
X125810000Y-106700000D02*
G75*
G03*
X125810000Y-106700000I-2620000J0D01*
G01*
%TO.C,C2*%
X127080000Y-129520000D02*
G75*
G03*
X127080000Y-129520000I-2620000J0D01*
G01*
X127040000Y-129520000D02*
X121880000Y-129520000D01*
X127040000Y-129560000D02*
X121880000Y-129560000D01*
X127039000Y-129600000D02*
X121881000Y-129600000D01*
X127038000Y-129640000D02*
X121882000Y-129640000D01*
X127036000Y-129680000D02*
X121884000Y-129680000D01*
X127033000Y-129720000D02*
X121887000Y-129720000D01*
X127029000Y-129760000D02*
X125500000Y-129760000D01*
X123420000Y-129760000D02*
X121891000Y-129760000D01*
X127025000Y-129800000D02*
X125500000Y-129800000D01*
X123420000Y-129800000D02*
X121895000Y-129800000D01*
X127021000Y-129840000D02*
X125500000Y-129840000D01*
X123420000Y-129840000D02*
X121899000Y-129840000D01*
X127016000Y-129880000D02*
X125500000Y-129880000D01*
X123420000Y-129880000D02*
X121904000Y-129880000D01*
X127010000Y-129920000D02*
X125500000Y-129920000D01*
X123420000Y-129920000D02*
X121910000Y-129920000D01*
X127003000Y-129960000D02*
X125500000Y-129960000D01*
X123420000Y-129960000D02*
X121917000Y-129960000D01*
X126996000Y-130000000D02*
X125500000Y-130000000D01*
X123420000Y-130000000D02*
X121924000Y-130000000D01*
X126988000Y-130040000D02*
X125500000Y-130040000D01*
X123420000Y-130040000D02*
X121932000Y-130040000D01*
X126980000Y-130080000D02*
X125500000Y-130080000D01*
X123420000Y-130080000D02*
X121940000Y-130080000D01*
X126971000Y-130120000D02*
X125500000Y-130120000D01*
X123420000Y-130120000D02*
X121949000Y-130120000D01*
X126961000Y-130160000D02*
X125500000Y-130160000D01*
X123420000Y-130160000D02*
X121959000Y-130160000D01*
X126951000Y-130200000D02*
X125500000Y-130200000D01*
X123420000Y-130200000D02*
X121969000Y-130200000D01*
X126940000Y-130241000D02*
X125500000Y-130241000D01*
X123420000Y-130241000D02*
X121980000Y-130241000D01*
X126928000Y-130281000D02*
X125500000Y-130281000D01*
X123420000Y-130281000D02*
X121992000Y-130281000D01*
X126915000Y-130321000D02*
X125500000Y-130321000D01*
X123420000Y-130321000D02*
X122005000Y-130321000D01*
X126902000Y-130361000D02*
X125500000Y-130361000D01*
X123420000Y-130361000D02*
X122018000Y-130361000D01*
X126888000Y-130401000D02*
X125500000Y-130401000D01*
X123420000Y-130401000D02*
X122032000Y-130401000D01*
X126874000Y-130441000D02*
X125500000Y-130441000D01*
X123420000Y-130441000D02*
X122046000Y-130441000D01*
X126858000Y-130481000D02*
X125500000Y-130481000D01*
X123420000Y-130481000D02*
X122062000Y-130481000D01*
X126842000Y-130521000D02*
X125500000Y-130521000D01*
X123420000Y-130521000D02*
X122078000Y-130521000D01*
X126825000Y-130561000D02*
X125500000Y-130561000D01*
X123420000Y-130561000D02*
X122095000Y-130561000D01*
X126808000Y-130601000D02*
X125500000Y-130601000D01*
X123420000Y-130601000D02*
X122112000Y-130601000D01*
X126789000Y-130641000D02*
X125500000Y-130641000D01*
X123420000Y-130641000D02*
X122131000Y-130641000D01*
X126770000Y-130681000D02*
X125500000Y-130681000D01*
X123420000Y-130681000D02*
X122150000Y-130681000D01*
X126750000Y-130721000D02*
X125500000Y-130721000D01*
X123420000Y-130721000D02*
X122170000Y-130721000D01*
X126728000Y-130761000D02*
X125500000Y-130761000D01*
X123420000Y-130761000D02*
X122192000Y-130761000D01*
X126707000Y-130801000D02*
X125500000Y-130801000D01*
X123420000Y-130801000D02*
X122213000Y-130801000D01*
X126684000Y-130841000D02*
X125500000Y-130841000D01*
X123420000Y-130841000D02*
X122236000Y-130841000D01*
X126660000Y-130881000D02*
X125500000Y-130881000D01*
X123420000Y-130881000D02*
X122260000Y-130881000D01*
X126635000Y-130921000D02*
X125500000Y-130921000D01*
X123420000Y-130921000D02*
X122285000Y-130921000D01*
X126609000Y-130961000D02*
X125500000Y-130961000D01*
X123420000Y-130961000D02*
X122311000Y-130961000D01*
X126582000Y-131001000D02*
X125500000Y-131001000D01*
X123420000Y-131001000D02*
X122338000Y-131001000D01*
X126555000Y-131041000D02*
X125500000Y-131041000D01*
X123420000Y-131041000D02*
X122365000Y-131041000D01*
X126525000Y-131081000D02*
X125500000Y-131081000D01*
X123420000Y-131081000D02*
X122395000Y-131081000D01*
X126495000Y-131121000D02*
X125500000Y-131121000D01*
X123420000Y-131121000D02*
X122425000Y-131121000D01*
X126464000Y-131161000D02*
X125500000Y-131161000D01*
X123420000Y-131161000D02*
X122456000Y-131161000D01*
X126431000Y-131201000D02*
X125500000Y-131201000D01*
X123420000Y-131201000D02*
X122489000Y-131201000D01*
X126397000Y-131241000D02*
X125500000Y-131241000D01*
X123420000Y-131241000D02*
X122523000Y-131241000D01*
X126361000Y-131281000D02*
X125500000Y-131281000D01*
X123420000Y-131281000D02*
X122559000Y-131281000D01*
X126324000Y-131321000D02*
X125500000Y-131321000D01*
X123420000Y-131321000D02*
X122596000Y-131321000D01*
X126286000Y-131361000D02*
X125500000Y-131361000D01*
X123420000Y-131361000D02*
X122634000Y-131361000D01*
X126245000Y-131401000D02*
X125500000Y-131401000D01*
X123420000Y-131401000D02*
X122675000Y-131401000D01*
X126203000Y-131441000D02*
X125500000Y-131441000D01*
X123420000Y-131441000D02*
X122717000Y-131441000D01*
X126159000Y-131481000D02*
X125500000Y-131481000D01*
X123420000Y-131481000D02*
X122761000Y-131481000D01*
X126113000Y-131521000D02*
X125500000Y-131521000D01*
X123420000Y-131521000D02*
X122807000Y-131521000D01*
X126065000Y-131561000D02*
X125500000Y-131561000D01*
X123420000Y-131561000D02*
X122855000Y-131561000D01*
X126014000Y-131601000D02*
X125500000Y-131601000D01*
X123420000Y-131601000D02*
X122906000Y-131601000D01*
X125960000Y-131641000D02*
X125500000Y-131641000D01*
X123420000Y-131641000D02*
X122960000Y-131641000D01*
X125903000Y-131681000D02*
X125500000Y-131681000D01*
X123420000Y-131681000D02*
X123017000Y-131681000D01*
X125843000Y-131721000D02*
X125500000Y-131721000D01*
X123420000Y-131721000D02*
X123077000Y-131721000D01*
X125779000Y-131761000D02*
X125500000Y-131761000D01*
X123420000Y-131761000D02*
X123141000Y-131761000D01*
X125711000Y-131801000D02*
X125500000Y-131801000D01*
X123420000Y-131801000D02*
X123209000Y-131801000D01*
X125638000Y-131841000D02*
X123282000Y-131841000D01*
X125558000Y-131881000D02*
X123362000Y-131881000D01*
X125471000Y-131921000D02*
X123449000Y-131921000D01*
X125375000Y-131961000D02*
X123545000Y-131961000D01*
X125265000Y-132001000D02*
X123655000Y-132001000D01*
X125137000Y-132041000D02*
X123783000Y-132041000D01*
X124978000Y-132081000D02*
X123942000Y-132081000D01*
X124744000Y-132121000D02*
X124176000Y-132121000D01*
X125935000Y-126715225D02*
X125935000Y-127215225D01*
X126185000Y-126965225D02*
X125685000Y-126965225D01*
%TO.C,C3*%
X117895000Y-105080000D02*
X117960000Y-105080000D01*
X115720000Y-105080000D02*
X115785000Y-105080000D01*
X117895000Y-108320000D02*
X117960000Y-108320000D01*
X115720000Y-108320000D02*
X115785000Y-108320000D01*
X117960000Y-108320000D02*
X117960000Y-105080000D01*
X115720000Y-108320000D02*
X115720000Y-105080000D01*
%TO.C,C4*%
X119230000Y-127900000D02*
X119230000Y-131140000D01*
X116990000Y-127900000D02*
X116990000Y-131140000D01*
X119230000Y-127900000D02*
X119165000Y-127900000D01*
X117055000Y-127900000D02*
X116990000Y-127900000D01*
X119230000Y-131140000D02*
X119165000Y-131140000D01*
X117055000Y-131140000D02*
X116990000Y-131140000D01*
%TO.C,J1*%
X107580000Y-113510000D02*
X107580000Y-116110000D01*
X92880000Y-113510000D02*
X107580000Y-113510000D01*
X107580000Y-122710000D02*
X105680000Y-122710000D01*
X107580000Y-120010000D02*
X107580000Y-122710000D01*
X92880000Y-122710000D02*
X92880000Y-113510000D01*
X101680000Y-122710000D02*
X92880000Y-122710000D01*
X106730000Y-113310000D02*
X107780000Y-113310000D01*
X107780000Y-114360000D02*
X107780000Y-113310000D01*
%TO.C,J3*%
X133000000Y-128500000D02*
X133000000Y-129500000D01*
X133500000Y-129000000D02*
X133000000Y-128500000D01*
X133000000Y-129500000D02*
X133500000Y-129000000D01*
X135860000Y-118140000D02*
X133880000Y-118140000D01*
X133880000Y-132860000D02*
X135860000Y-132860000D01*
X133880000Y-132860000D02*
X133880000Y-118140000D01*
X139560000Y-118140000D02*
X148100000Y-118140000D01*
X148100000Y-132860000D02*
X148100000Y-118140000D01*
X139560000Y-132860000D02*
X148100000Y-132860000D01*
%TO.C,J4*%
X133170000Y-104670000D02*
X134500000Y-104670000D01*
X133170000Y-106000000D02*
X133170000Y-104670000D01*
X133170000Y-107270000D02*
X135830000Y-107270000D01*
X135830000Y-107270000D02*
X135830000Y-114950000D01*
X133170000Y-107270000D02*
X133170000Y-114950000D01*
X133170000Y-114950000D02*
X135830000Y-114950000D01*
%TO.C,U1*%
X122500000Y-114332000D02*
X122500000Y-116350000D01*
X118800000Y-114332000D02*
X118800000Y-116350000D01*
X125563000Y-117092000D02*
X125900000Y-117092000D01*
X123023000Y-117092000D02*
X123358000Y-117092000D01*
X120483000Y-117092000D02*
X120818000Y-117092000D01*
X117943000Y-117092000D02*
X118278000Y-117092000D01*
X115400000Y-117092000D02*
X115737000Y-117092000D01*
X125900000Y-114332000D02*
X125900000Y-119273000D01*
X115400000Y-114332000D02*
X115400000Y-119273000D01*
X115400000Y-119273000D02*
X125900000Y-119273000D01*
X115400000Y-114332000D02*
X125900000Y-114332000D01*
%TD*%
%TO.C,MH3*%
D11*
X141866666Y-104252380D02*
X141866666Y-103252380D01*
X142200000Y-103966666D01*
X142533333Y-103252380D01*
X142533333Y-104252380D01*
X143009523Y-104252380D02*
X143009523Y-103252380D01*
X143009523Y-103728571D02*
X143580952Y-103728571D01*
X143580952Y-104252380D02*
X143580952Y-103252380D01*
X143961904Y-103252380D02*
X144580952Y-103252380D01*
X144247619Y-103633333D01*
X144390476Y-103633333D01*
X144485714Y-103680952D01*
X144533333Y-103728571D01*
X144580952Y-103823809D01*
X144580952Y-104061904D01*
X144533333Y-104157142D01*
X144485714Y-104204761D01*
X144390476Y-104252380D01*
X144104761Y-104252380D01*
X144009523Y-104204761D01*
X143961904Y-104157142D01*
%TO.C,MH2*%
X104666666Y-126252380D02*
X104666666Y-125252380D01*
X105000000Y-125966666D01*
X105333333Y-125252380D01*
X105333333Y-126252380D01*
X105809523Y-126252380D02*
X105809523Y-125252380D01*
X105809523Y-125728571D02*
X106380952Y-125728571D01*
X106380952Y-126252380D02*
X106380952Y-125252380D01*
X106809523Y-125347619D02*
X106857142Y-125300000D01*
X106952380Y-125252380D01*
X107190476Y-125252380D01*
X107285714Y-125300000D01*
X107333333Y-125347619D01*
X107380952Y-125442857D01*
X107380952Y-125538095D01*
X107333333Y-125680952D01*
X106761904Y-126252380D01*
X107380952Y-126252380D01*
%TO.C,MH1*%
X104469610Y-103949436D02*
X104469610Y-102949436D01*
X104802944Y-103663722D01*
X105136277Y-102949436D01*
X105136277Y-103949436D01*
X105612467Y-103949436D02*
X105612467Y-102949436D01*
X105612467Y-103425627D02*
X106183896Y-103425627D01*
X106183896Y-103949436D02*
X106183896Y-102949436D01*
X107183896Y-103949436D02*
X106612467Y-103949436D01*
X106898182Y-103949436D02*
X106898182Y-102949436D01*
X106802944Y-103092294D01*
X106707705Y-103187532D01*
X106612467Y-103235151D01*
%TO.C,C1*%
X119797142Y-106866666D02*
X119844761Y-106914285D01*
X119892380Y-107057142D01*
X119892380Y-107152380D01*
X119844761Y-107295238D01*
X119749523Y-107390476D01*
X119654285Y-107438095D01*
X119463809Y-107485714D01*
X119320952Y-107485714D01*
X119130476Y-107438095D01*
X119035238Y-107390476D01*
X118940000Y-107295238D01*
X118892380Y-107152380D01*
X118892380Y-107057142D01*
X118940000Y-106914285D01*
X118987619Y-106866666D01*
X119892380Y-105914285D02*
X119892380Y-106485714D01*
X119892380Y-106200000D02*
X118892380Y-106200000D01*
X119035238Y-106295238D01*
X119130476Y-106390476D01*
X119178095Y-106485714D01*
%TO.C,C2*%
X128567142Y-129686666D02*
X128614761Y-129734285D01*
X128662380Y-129877142D01*
X128662380Y-129972380D01*
X128614761Y-130115238D01*
X128519523Y-130210476D01*
X128424285Y-130258095D01*
X128233809Y-130305714D01*
X128090952Y-130305714D01*
X127900476Y-130258095D01*
X127805238Y-130210476D01*
X127710000Y-130115238D01*
X127662380Y-129972380D01*
X127662380Y-129877142D01*
X127710000Y-129734285D01*
X127757619Y-129686666D01*
X127757619Y-129305714D02*
X127710000Y-129258095D01*
X127662380Y-129162857D01*
X127662380Y-128924761D01*
X127710000Y-128829523D01*
X127757619Y-128781904D01*
X127852857Y-128734285D01*
X127948095Y-128734285D01*
X128090952Y-128781904D01*
X128662380Y-129353333D01*
X128662380Y-128734285D01*
%TO.C,C3*%
X114947142Y-106866666D02*
X114994761Y-106914285D01*
X115042380Y-107057142D01*
X115042380Y-107152380D01*
X114994761Y-107295238D01*
X114899523Y-107390476D01*
X114804285Y-107438095D01*
X114613809Y-107485714D01*
X114470952Y-107485714D01*
X114280476Y-107438095D01*
X114185238Y-107390476D01*
X114090000Y-107295238D01*
X114042380Y-107152380D01*
X114042380Y-107057142D01*
X114090000Y-106914285D01*
X114137619Y-106866666D01*
X114042380Y-106533333D02*
X114042380Y-105914285D01*
X114423333Y-106247619D01*
X114423333Y-106104761D01*
X114470952Y-106009523D01*
X114518571Y-105961904D01*
X114613809Y-105914285D01*
X114851904Y-105914285D01*
X114947142Y-105961904D01*
X114994761Y-106009523D01*
X115042380Y-106104761D01*
X115042380Y-106390476D01*
X114994761Y-106485714D01*
X114947142Y-106533333D01*
%TO.C,C4*%
X120717142Y-129686666D02*
X120764761Y-129734285D01*
X120812380Y-129877142D01*
X120812380Y-129972380D01*
X120764761Y-130115238D01*
X120669523Y-130210476D01*
X120574285Y-130258095D01*
X120383809Y-130305714D01*
X120240952Y-130305714D01*
X120050476Y-130258095D01*
X119955238Y-130210476D01*
X119860000Y-130115238D01*
X119812380Y-129972380D01*
X119812380Y-129877142D01*
X119860000Y-129734285D01*
X119907619Y-129686666D01*
X120145714Y-128829523D02*
X120812380Y-128829523D01*
X119764761Y-129067619D02*
X120479047Y-129305714D01*
X120479047Y-128686666D01*
%TO.C,J1*%
X108666666Y-113952380D02*
X108666666Y-114666666D01*
X108619047Y-114809523D01*
X108523809Y-114904761D01*
X108380952Y-114952380D01*
X108285714Y-114952380D01*
X109666666Y-114952380D02*
X109095238Y-114952380D01*
X109380952Y-114952380D02*
X109380952Y-113952380D01*
X109285714Y-114095238D01*
X109190476Y-114190476D01*
X109095238Y-114238095D01*
%TO.C,J3*%
X132102380Y-131283333D02*
X132816666Y-131283333D01*
X132959523Y-131330952D01*
X133054761Y-131426190D01*
X133102380Y-131569047D01*
X133102380Y-131664285D01*
X132102380Y-130902380D02*
X132102380Y-130283333D01*
X132483333Y-130616666D01*
X132483333Y-130473809D01*
X132530952Y-130378571D01*
X132578571Y-130330952D01*
X132673809Y-130283333D01*
X132911904Y-130283333D01*
X133007142Y-130330952D01*
X133054761Y-130378571D01*
X133102380Y-130473809D01*
X133102380Y-130759523D01*
X133054761Y-130854761D01*
X133007142Y-130902380D01*
%TO.C,J4*%
X134166666Y-103122380D02*
X134166666Y-103836666D01*
X134119047Y-103979523D01*
X134023809Y-104074761D01*
X133880952Y-104122380D01*
X133785714Y-104122380D01*
X135071428Y-103455714D02*
X135071428Y-104122380D01*
X134833333Y-103074761D02*
X134595238Y-103789047D01*
X135214285Y-103789047D01*
%TO.C,U1*%
X119888095Y-112784880D02*
X119888095Y-113594404D01*
X119935714Y-113689642D01*
X119983333Y-113737261D01*
X120078571Y-113784880D01*
X120269047Y-113784880D01*
X120364285Y-113737261D01*
X120411904Y-113689642D01*
X120459523Y-113594404D01*
X120459523Y-112784880D01*
X121459523Y-113784880D02*
X120888095Y-113784880D01*
X121173809Y-113784880D02*
X121173809Y-112784880D01*
X121078571Y-112927738D01*
X120983333Y-113022976D01*
X120888095Y-113070595D01*
%TD*%
M02*
